<svg width="24" height="24" viewBox="0 0 24 24" fill="none" xmlns="http://www.w3.org/2000/svg">
    <path d="M10 13.0862C4.84116 13.0862 2 15.5267 2 19.9583C2 20.3044 2.28052 20.5849 2.62663 20.5849H17.3734C17.7195 20.5849 18 20.3044 18 19.9583C18.0001 15.5269 15.1589 13.0862 10 13.0862ZM3.27606 19.3316C3.52254 16.0182 5.78154 14.3395 10 14.3395C14.2185 14.3395 16.4776 16.0182 16.7242 19.3316H3.27606Z"
          fill="currentColor"/>
    <path d="M10 13.0862C4.84116 13.0862 2 15.5267 2 19.9583C2 20.3044 2.28052 20.5849 2.62663 20.5849H17.3734C17.7195 20.5849 18 20.3044 18 19.9583C18.0001 15.5269 15.1589 13.0862 10 13.0862ZM3.27606 19.3316C3.52254 16.0182 5.78154 14.3395 10 14.3395C14.2185 14.3395 16.4776 16.0182 16.7242 19.3316H3.27606Z"
          stroke="#1F2121"/>
    <path d="M9.99992 3.41516C7.63019 3.41516 5.84326 5.23804 5.84326 7.65518C5.84326 10.1431 7.70792 12.1669 9.99992 12.1669C12.2919 12.1669 14.1566 10.1431 14.1566 7.65538C14.1566 5.23804 12.3696 3.41516 9.99992 3.41516ZM9.99992 10.9139C8.39887 10.9139 7.09652 9.45214 7.09652 7.65538C7.09652 5.92463 8.31762 4.66842 9.99992 4.66842C11.6553 4.66842 12.9033 5.95239 12.9033 7.65538C12.9033 9.45214 11.601 10.9139 9.99992 10.9139Z"
          fill="currentColor"/>
    <path d="M9.99992 3.41516C7.63019 3.41516 5.84326 5.23804 5.84326 7.65518C5.84326 10.1431 7.70792 12.1669 9.99992 12.1669C12.2919 12.1669 14.1566 10.1431 14.1566 7.65538C14.1566 5.23804 12.3696 3.41516 9.99992 3.41516ZM9.99992 10.9139C8.39887 10.9139 7.09652 9.45214 7.09652 7.65538C7.09652 5.92463 8.31762 4.66842 9.99992 4.66842C11.6553 4.66842 12.9033 5.95239 12.9033 7.65538C12.9033 9.45214 11.601 10.9139 9.99992 10.9139Z"
          stroke="#1F2121"/>
    <path d="M19.4286 4.57143H16V3.42857H19.4286V0H20.5714V3.42857H24V4.57143H20.5714V8H19.4286V4.57143Z"
          fill="currentColor"/>
</svg>
