<svg width="24" height="24" viewBox="0 0 24 24" fill="none" xmlns="http://www.w3.org/2000/svg">
    <path d="M14.3408 13.8833C8.75672 13.8833 5.6814 16.525 5.6814 21.3218C5.6814 21.6964 5.98503 22 6.35967 22H22.3218C22.6965 22 23.0001 21.6964 23.0001 21.3218C23.0001 16.5252 19.9248 13.8833 14.3408 13.8833ZM7.06263 20.6435C7.32942 17.057 9.7746 15.2399 14.3408 15.2399C18.9069 15.2399 21.3522 17.057 21.6192 20.6435H7.06263Z"
          fill="currentColor"/>
    <path d="M14.3408 3.41516C11.7758 3.41516 9.84155 5.38828 9.84155 8.00464C9.84155 10.6976 11.8599 12.8882 14.3408 12.8882C16.8217 12.8882 18.84 10.6976 18.84 8.00485C18.84 5.38828 16.9058 3.41516 14.3408 3.41516ZM14.3408 11.5319C12.6078 11.5319 11.1981 9.94969 11.1981 8.00485C11.1981 6.13145 12.5198 4.77171 14.3408 4.77171C16.1326 4.77171 17.4835 6.16151 17.4835 8.00485C17.4835 9.94969 16.0738 11.5319 14.3408 11.5319Z"
          fill="currentColor"/>
    <path d="M8.6538 11C8.6012 11 8.54929 10.9895 8.50202 10.9692C8.45474 10.9489 8.41334 10.9194 8.38096 10.883C7.88633 10.3262 7.4274 9.8964 6.79451 9.60838C6.20879 9.34261 5.47312 9.20392 4.49944 9.17805V10.6956C4.49924 10.755 4.47926 10.8131 4.44197 10.8626C4.40468 10.9122 4.35172 10.9511 4.28961 10.9745C4.22749 10.9979 4.15895 11.0048 4.09243 10.9943C4.0259 10.9839 3.96431 10.9566 3.91524 10.9157L0.107073 7.71965C0.0732313 7.69122 0.0462951 7.65707 0.0278917 7.61923C0.00948838 7.5814 0 7.54068 0 7.49953C0 7.45839 0.00948838 7.41767 0.0278917 7.37984C0.0462951 7.342 0.0732313 7.30784 0.107073 7.27942L3.91524 4.08335C3.96431 4.0425 4.0259 4.01517 4.09243 4.00473C4.15895 3.9943 4.22749 4.0012 4.28961 4.02461C4.35172 4.04801 4.40468 4.08688 4.44197 4.13643C4.47926 4.18598 4.49924 4.24404 4.49944 4.30346V5.83225C6.10363 5.89712 7.29888 6.42029 8.05553 7.38976C8.68236 8.19278 9 9.30494 9 10.6956C9 10.7763 8.96353 10.8538 8.8986 10.9108C8.83368 10.9679 8.74562 11 8.6538 11Z"
          fill="currentColor"/>
</svg>
