<svg width="24" height="24" viewBox="0 0 24 24" fill="none" xmlns="http://www.w3.org/2000/svg">
    <path d="M12.52 3.25C12.02 3.25 11.52 3.42 11.13 3.74L6.74 7.25H5C3.48 7.25 2.25 8.48 2.25 10V14C2.25 15.52 3.48 16.75 5 16.75H6.74L11.13 20.26C11.52 20.57 12.02 20.75 12.52 20.75C13.75 20.75 14.75 19.75 14.75 18.52V5.48C14.75 4.25 13.75 3.25 12.52 3.25ZM3.75 14V10C3.75 9.31 4.31 8.75 5 8.75H6.25V15.25H5C4.31 15.25 3.75 14.69 3.75 14ZM13.25 18.52C13.25 18.92 12.92 19.25 12.52 19.25C12.35 19.25 12.19 19.19 12.06 19.09L7.75 15.64V8.36L12.06 4.91C12.19 4.81 12.35 4.75 12.52 4.75C12.92 4.75 13.25 5.08 13.25 5.48V18.52Z"
          fill="currentColor"/>
    <path d="M17.54 8.84005C17.26 8.53005 16.79 8.51005 16.48 8.79005C16.17 9.07005 16.15 9.54005 16.43 9.85005C16.96 10.44 17.26 11.21 17.26 12.01C17.26 12.86 16.93 13.67 16.34 14.28C16.05 14.58 16.06 15.05 16.36 15.34C16.51 15.48 16.69 15.55 16.88 15.55C17.07 15.55 17.27 15.47 17.42 15.32C18.29 14.43 18.76 13.25 18.76 12.01C18.76 10.84 18.33 9.72005 17.55 8.85005L17.54 8.84005Z"
          fill="currentColor"/>
    <path d="M19.81 6.87998C19.53 6.56998 19.06 6.53998 18.75 6.81998C18.44 7.09998 18.42 7.56998 18.69 7.87998C19.7 8.99998 20.25 10.47 20.25 12C20.25 13.53 19.68 15.04 18.64 16.18C18.36 16.49 18.38 16.96 18.69 17.24C18.83 17.37 19.01 17.44 19.2 17.44C19.4 17.44 19.61 17.36 19.75 17.2C21.04 15.78 21.76 13.94 21.76 12C21.76 10.06 21.07 8.27998 19.82 6.87998H19.81Z"
          fill="currentColor"/>
</svg>
