<svg width="24" height="24" viewBox="0 0 24 24" fill="none" xmlns="http://www.w3.org/2000/svg">
    <path d="M22.2185 1.79555C19.8498 -0.582062 15.9834 -0.612288 13.5838 1.78773L1.79467 13.5788C-0.588993 15.9629 -0.588946 19.8217 1.79579 22.2054C4.17654 24.5917 8.04181 24.6033 10.4322 22.2092L22.2135 10.4103C24.5838 8.0366 24.586 4.17204 22.2185 1.79555ZM21.2187 9.41698L9.43742 21.2159C8.5512 22.1034 7.37238 22.5925 6.1182 22.5931C3.48237 22.5931 1.41471 20.4459 1.41433 17.8922C1.41414 16.6384 1.90231 15.4595 2.78885 14.5728L14.578 2.78177C16.4143 0.945139 19.3889 0.947201 21.2225 2.78777C23.0444 4.61653 23.0426 7.59038 21.2187 9.41698Z"
          fill="currentColor"/>
    <path d="M13.6329 7.75238C13.3588 7.47729 12.9128 7.4765 12.6379 7.75149L7.76424 12.6252C7.48972 12.8997 7.48972 13.3448 7.76424 13.6193L10.3885 16.2436C10.6628 16.5179 11.1085 16.5183 11.3831 16.2431L16.2474 11.3694C16.5211 11.0952 16.5213 10.6511 16.2478 10.3767L13.6329 7.75238ZM10.885 14.7519L9.25536 13.1223L13.1341 9.24354L14.7571 10.8724L10.885 14.7519Z"
          fill="currentColor"/>
    <path d="M16.7618 4.37728C16.4873 4.6518 16.4873 5.0969 16.7618 5.37137C17.0363 5.64589 17.4814 5.64589 17.7559 5.37137C18.0304 5.09685 18.0304 4.6518 17.7559 4.37728C17.4814 4.10276 17.0363 4.10276 16.7618 4.37728Z"
          fill="currentColor"/>
    <path d="M18.6363 6.25154C18.3618 6.52606 18.3618 6.97112 18.6363 7.24564C18.9108 7.52016 19.3559 7.52016 19.6304 7.24564C19.9049 6.97112 19.9049 6.52606 19.6304 6.25154C19.3559 5.97702 18.9108 5.97702 18.6363 6.25154Z"
          fill="currentColor"/>
    <path d="M15.8814 7.24564C16.1559 6.97112 16.1559 6.52606 15.8814 6.25154C15.6069 5.97702 15.1618 5.97702 14.8873 6.25154C14.6128 6.52606 14.6128 6.97112 14.8873 7.24564C15.1618 7.52016 15.6069 7.52016 15.8814 7.24564Z"
          fill="currentColor"/>
    <path d="M16.7618 8.12606C16.4873 8.40058 16.4873 8.84563 16.7618 9.12015C17.0363 9.39467 17.4814 9.39467 17.7559 9.12015C18.0304 8.84563 18.0304 8.40058 17.7559 8.12606C17.4814 7.85154 17.0363 7.85154 16.7618 8.12606Z"
          fill="currentColor"/>
    <path d="M6.26473 14.8743C5.99021 15.1489 5.99021 15.5939 6.26473 15.8684C6.53925 16.143 6.9843 16.143 7.25882 15.8684C7.53334 15.5939 7.53334 15.1489 7.25882 14.8743C6.9843 14.5998 6.53925 14.5998 6.26473 14.8743Z"
          fill="currentColor"/>
    <path d="M8.13924 16.7489C7.86472 17.0234 7.86472 17.4684 8.13924 17.743C8.41376 18.0175 8.85881 18.0175 9.13333 17.743C9.40785 17.4684 9.40785 17.0234 9.13333 16.7489C8.85881 16.4743 8.41376 16.4743 8.13924 16.7489Z"
          fill="currentColor"/>
    <path d="M4.39022 16.7489C4.1157 17.0234 4.1157 17.4684 4.39022 17.743C4.66474 18.0175 5.10979 18.0175 5.38431 17.743C5.65883 17.4684 5.65883 17.0234 5.38431 16.7489C5.10979 16.4743 4.66474 16.4743 4.39022 16.7489Z"
          fill="currentColor"/>
    <path d="M6.26473 18.6234C5.99021 18.8979 5.99021 19.3429 6.26473 19.6175C6.53925 19.892 6.9843 19.892 7.25882 19.6175C7.53334 19.3429 7.53334 18.8979 7.25882 18.6234C6.9843 18.3489 6.53925 18.3489 6.26473 18.6234Z"
          fill="currentColor"/>
</svg>
