<svg width="18" height="10" viewBox="0 0 18 10" fill="none" xmlns="http://www.w3.org/2000/svg">
    <path d="M14 2V0H0V2H14ZM14 6V4H0V6H14ZM14 10V8H0V10H14ZM17 2C17.2833 2 17.5208 1.90417 17.7125 1.7125C17.9042 1.52083 18 1.28333 18 1C18 0.716667 17.9042 0.479167 17.7125 0.2875C17.5208 0.0958333 17.2833 0 17 0C16.7167 0 16.4792 0.0958333 16.2875 0.2875C16.0958 0.479167 16 0.716667 16 1C16 1.28333 16.0958 1.52083 16.2875 1.7125C16.4792 1.90417 16.7167 2 17 2ZM17 6C17.2833 6 17.5208 5.90417 17.7125 5.7125C17.9042 5.52083 18 5.28333 18 5C18 4.71667 17.9042 4.47917 17.7125 4.2875C17.5208 4.09583 17.2833 4 17 4C16.7167 4 16.4792 4.09583 16.2875 4.2875C16.0958 4.47917 16 4.71667 16 5C16 5.28333 16.0958 5.52083 16.2875 5.7125C16.4792 5.90417 16.7167 6 17 6ZM17 10C17.2833 10 17.5208 9.90417 17.7125 9.7125C17.9042 9.52083 18 9.28333 18 9C18 8.71667 17.9042 8.47917 17.7125 8.2875C17.5208 8.09583 17.2833 8 17 8C16.7167 8 16.4792 8.09583 16.2875 8.2875C16.0958 8.47917 16 8.71667 16 9C16 9.28333 16.0958 9.52083 16.2875 9.7125C16.4792 9.90417 16.7167 10 17 10Z"
          fill="currentColor"/>
</svg>
