<svg width="24" height="24" viewBox="0 0 24 24" fill="none" xmlns="http://www.w3.org/2000/svg">
    <path fill-rule="evenodd" clip-rule="evenodd"
          d="M3.98465 1.98477C4.51913 1.45029 5.24404 1.15002 5.9999 1.15002H13.5599C14.3046 1.15012 15.0197 1.44166 15.5522 1.96227L19.9921 6.30417C19.992 6.30412 19.9921 6.30422 19.9921 6.30417C20.2635 6.56954 20.4793 6.8866 20.6266 7.23647C20.7739 7.5864 20.8499 7.96224 20.8499 8.34192V20C20.8499 20.7559 20.5496 21.4808 20.0152 22.0153C19.4807 22.5498 18.7558 22.85 17.9999 22.85H5.9999C5.24403 22.85 4.51913 22.5498 3.98465 22.0153C3.45017 21.4808 3.1499 20.7559 3.1499 20V4.00002C3.1499 3.24416 3.45017 2.51925 3.98465 1.98477ZM5.9999 2.85002C5.6949 2.85002 5.4024 2.97118 5.18673 3.18685C4.97106 3.40252 4.8499 3.69503 4.8499 4.00002V20C4.8499 20.305 4.97106 20.5975 5.18673 20.8132C5.4024 21.0289 5.6949 21.15 5.9999 21.15H17.9999C18.3049 21.15 18.5974 21.0289 18.8131 20.8132C19.0287 20.5975 19.1499 20.305 19.1499 20V8.34213C19.1499 8.34209 19.1499 8.34216 19.1499 8.34213C19.1499 8.18896 19.1192 8.03724 19.0598 7.89607C19.0004 7.75487 18.9133 7.62697 18.8038 7.51988L14.3636 3.17777C14.3636 3.17776 14.3637 3.17779 14.3636 3.17777C14.1488 2.96775 13.8603 2.85009 13.5599 2.85002C13.5599 2.85002 13.5599 2.85002 13.5599 2.85002H5.9999ZM8.1499 13C8.1499 12.5306 8.53046 12.15 8.9999 12.15H14.9999C15.4693 12.15 15.8499 12.5306 15.8499 13C15.8499 13.4695 15.4693 13.85 14.9999 13.85H8.9999C8.53046 13.85 8.1499 13.4695 8.1499 13ZM8.1499 17C8.1499 16.5306 8.53046 16.15 8.9999 16.15H11.9999C12.4693 16.15 12.8499 16.5306 12.8499 17C12.8499 17.4695 12.4693 17.85 11.9999 17.85H8.9999C8.53046 17.85 8.1499 17.4695 8.1499 17Z"
          fill="currentColor"/>
    <path fill-rule="evenodd" clip-rule="evenodd"
          d="M13.1499 6V2H14.8499V6C14.8499 6.305 14.9711 6.59751 15.1867 6.81317C15.4024 7.02884 15.6949 7.15 15.9999 7.15H19.9999V8.85H15.9999C15.244 8.85 14.5191 8.54973 13.9846 8.01525C13.4502 7.48078 13.1499 6.75587 13.1499 6Z"
          fill="currentColor"/>
</svg>
