<svg width="24" height="24" viewBox="0 0 24 24" fill="none" xmlns="http://www.w3.org/2000/svg">
    <g clip-path="url(#clip0_192_14987)">
        <path d="M17.7275 20.1363H6.27195C5.9965 20.1363 5.77295 19.9128 5.77295 19.6373V12.1638C5.77295 8.40131 8.33383 5.77307 12 5.77307C15.6662 5.77307 18.2265 8.40131 18.2265 12.1638V19.6373C18.2265 19.9128 18.003 20.1363 17.7275 20.1363ZM6.77095 19.1383H17.2285V12.1638C17.2285 8.98914 15.0788 6.77108 12 6.77108C8.92115 6.77108 6.77095 8.98914 6.77095 12.1638V19.1383Z"
              fill="currentColor"/>
        <path fill-rule="evenodd" clip-rule="evenodd"
              d="M17.7274 20.2362H6.27185C5.94118 20.2362 5.67285 19.9679 5.67285 19.6372V12.1637C5.67285 10.2593 6.32129 8.63568 7.43994 7.48762C8.55877 6.33937 10.1421 5.67297 11.9999 5.67297C13.8577 5.67297 15.4409 6.33937 16.5596 7.48762C17.6781 8.63568 18.3264 10.2593 18.3264 12.1637V19.6372C18.3264 19.9679 18.0581 20.2362 17.7274 20.2362ZM17.2284 12.1637C17.2284 8.98904 15.0787 6.77098 11.9999 6.77098C8.92106 6.77098 6.77086 8.98904 6.77086 12.1637V19.1382H17.2284V12.1637ZM17.1284 19.0382V12.1637C17.1284 10.5993 16.5991 9.27707 15.6969 8.34645C14.795 7.41605 13.5144 6.87098 11.9999 6.87098C10.4853 6.87098 9.2047 7.41605 8.3026 8.34645C7.40029 9.27708 6.87086 10.5993 6.87086 12.1637V19.0382H17.1284ZM6.27185 20.1362H17.7274C18.0029 20.1362 18.2264 19.9127 18.2264 19.6372V12.1637C18.2264 8.40122 15.6661 5.77297 11.9999 5.77297C8.33373 5.77297 5.77285 8.40122 5.77285 12.1637V19.6372C5.77285 19.9127 5.9964 20.1362 6.27185 20.1362Z"
              fill="currentColor"/>
        <path d="M15.8202 13.4537C15.5447 13.4537 15.3212 13.2301 15.3212 12.9547C15.3212 11.1643 14.4419 9.52104 13.2753 9.13282C13.0133 9.04549 12.8716 8.76306 12.9589 8.50108C13.0462 8.23911 13.3286 8.09739 13.5906 8.18472C15.1715 8.71216 16.3192 10.7181 16.3192 12.9547C16.3192 13.2301 16.0956 13.4537 15.8202 13.4537Z"
              fill="currentColor"/>
        <path fill-rule="evenodd" clip-rule="evenodd"
              d="M13.2439 9.22764L13.2438 9.22762C12.9296 9.12288 12.7594 8.78392 12.8642 8.46939C12.9689 8.15518 13.3079 7.98494 13.6224 8.08978L13.6225 8.08979C15.2592 8.6359 16.4193 10.6935 16.4193 12.9546C16.4193 13.2853 16.151 13.5536 15.8203 13.5536C15.4897 13.5536 15.2213 13.2853 15.2213 12.9546C15.2213 12.075 15.0052 11.2329 14.6477 10.565C14.2894 9.89562 13.7948 9.41098 13.2439 9.22764ZM13.2754 9.13275C13.0135 9.04543 12.8717 8.76299 12.9591 8.50102C13.0464 8.23904 13.3288 8.09733 13.5908 8.18465C15.1716 8.7121 16.3193 10.7181 16.3193 12.9546C16.3193 13.2301 16.0958 13.4536 15.8203 13.4536C15.5449 13.4536 15.3213 13.2301 15.3213 12.9546C15.3213 11.1642 14.4421 9.52098 13.2754 9.13275Z"
              fill="currentColor"/>
        <path d="M21.0684 23H2.93064C2.65519 23 2.43164 22.7764 2.43164 22.501C2.43364 20.6447 3.93813 19.1402 5.79441 19.1382H18.2046C20.0609 19.1402 21.5654 20.6447 21.5674 22.501C21.5674 22.7764 21.3438 23 21.0684 23ZM3.48304 22.002H20.516C20.2799 20.9141 19.3179 20.1377 18.2046 20.1362H5.79441C4.68114 20.1377 3.71907 20.9141 3.48304 22.002Z"
              fill="currentColor"/>
        <path fill-rule="evenodd" clip-rule="evenodd"
              d="M2.33154 22.5009C2.3336 20.5894 3.88278 19.0403 5.79421 19.0382L18.2045 19.0382C20.1159 19.0403 21.6652 20.5894 21.6673 22.5009C21.6673 22.8316 21.3989 23.1 21.0683 23.1H2.93054C2.59987 23.1 2.33154 22.8316 2.33154 22.5009ZM20.5159 22.002C20.5086 21.9683 20.5006 21.935 20.4919 21.902C20.2202 20.8669 19.2833 20.1377 18.2045 20.1362H5.79432C4.71547 20.1377 3.77861 20.8669 3.5069 21.902C3.49823 21.935 3.49024 21.9683 3.48294 22.002H20.5159ZM3.61045 21.902H20.3884C20.1196 20.9241 19.2288 20.2376 18.2044 20.2362H5.79445C4.76999 20.2376 3.87923 20.9241 3.61045 21.902ZM2.93054 23H21.0683C21.3437 23 21.5673 22.7764 21.5673 22.501C21.5653 20.6447 20.0608 19.1402 18.2045 19.1382H5.79432C3.93803 19.1402 2.43354 20.6447 2.43154 22.501C2.43154 22.7764 2.6551 23 2.93054 23Z"
              fill="currentColor"/>
        <path d="M4.36277 12.4991H1.499C1.22355 12.4991 1 12.2755 1 12.0001C1 11.7247 1.22355 11.5011 1.499 11.5011H4.36277C4.63822 11.5011 4.86178 11.7247 4.86178 12.0001C4.86178 12.2755 4.63822 12.4991 4.36277 12.4991Z"
              fill="currentColor"/>
        <path fill-rule="evenodd" clip-rule="evenodd"
              d="M4.36268 12.5991H1.4989C1.16823 12.5991 0.899902 12.3308 0.899902 12.0001C0.899902 11.6694 1.16823 11.4011 1.4989 11.4011H4.36268C4.69335 11.4011 4.96168 11.6694 4.96168 12.0001C4.96168 12.3308 4.69335 12.5991 4.36268 12.5991ZM1.4989 12.4991H4.36268C4.63813 12.4991 4.86168 12.2756 4.86168 12.0001C4.86168 11.7247 4.63813 11.5011 4.36268 11.5011H1.4989C1.22346 11.5011 0.999902 11.7247 0.999902 12.0001C0.999902 12.2756 1.22346 12.4991 1.4989 12.4991Z"
              fill="currentColor"/>
        <path d="M6.23198 6.97506C6.09975 6.97506 5.9725 6.92266 5.87919 6.82885L3.97001 4.91917C3.77839 4.72106 3.78388 4.4052 3.98248 4.21358C4.17609 4.02695 4.48248 4.02695 4.6756 4.21358L6.58478 6.12326C6.77939 6.31837 6.77939 6.63424 6.58478 6.82885C6.49096 6.92266 6.36422 6.97506 6.23198 6.97506Z"
              fill="currentColor"/>
        <path fill-rule="evenodd" clip-rule="evenodd"
              d="M3.96989 4.91919C3.77828 4.72109 3.78376 4.40522 3.98237 4.2136C4.17598 4.02698 4.48237 4.02698 4.67548 4.2136L6.58466 6.12328C6.77927 6.31839 6.77927 6.63426 6.58466 6.82887C6.49085 6.92268 6.3641 6.97508 6.23187 6.97508C6.09963 6.97508 5.97239 6.92268 5.87907 6.82887L3.96989 4.91919ZM5.80832 6.89953C5.92056 7.01231 6.07334 7.07508 6.23187 7.07508C6.39062 7.07508 6.5428 7.01215 6.65537 6.89958C6.88909 6.66587 6.88896 6.28675 6.65546 6.05266L4.7462 4.1429L4.74497 4.14169C4.51305 3.91756 4.14526 3.91769 3.91297 4.14161C3.67463 4.37156 3.66793 4.75084 3.89801 4.98872L5.80832 6.89953C5.80836 6.89958 5.80827 6.89949 5.80832 6.89953Z"
              fill="currentColor"/>
        <path d="M12 4.86178C11.7245 4.86178 11.501 4.63822 11.501 4.36277V1.499C11.501 1.22355 11.7245 1 12 1C12.2754 1 12.499 1.22355 12.499 1.499V4.36277C12.499 4.63822 12.2754 4.86178 12 4.86178Z"
              fill="currentColor"/>
        <path fill-rule="evenodd" clip-rule="evenodd"
              d="M11.9999 4.9618C11.6692 4.9618 11.4009 4.69348 11.4009 4.3628V1.49903C11.4009 1.16835 11.6692 0.900024 11.9999 0.900024C12.3306 0.900024 12.5989 1.16835 12.5989 1.49903V4.3628C12.5989 4.69348 12.3306 4.9618 11.9999 4.9618ZM11.5009 4.3628C11.5009 4.63825 11.7244 4.8618 11.9999 4.8618C12.2753 4.8618 12.4989 4.63825 12.4989 4.3628V1.49903C12.4989 1.22358 12.2753 1.00002 11.9999 1.00002C11.7244 1.00002 11.5009 1.22358 11.5009 1.49903V4.3628Z"
              fill="currentColor"/>
        <path d="M17.8757 6.86672C17.6003 6.86672 17.3767 6.64317 17.3767 6.36772C17.3767 6.23549 17.4291 6.10874 17.5229 6.01493L19.4321 4.10575C19.6267 3.91064 19.9431 3.91064 20.1382 4.10525C20.3333 4.29986 20.3333 4.61622 20.1382 4.81133L18.2285 6.72052C18.1352 6.81433 18.0079 6.86672 17.8757 6.86672Z"
              fill="currentColor"/>
        <path fill-rule="evenodd" clip-rule="evenodd"
              d="M20.2088 4.88204L20.2088 4.88205L18.2993 6.79104C18.2993 6.79107 18.2992 6.79111 18.2992 6.79115C18.1869 6.90394 18.0342 6.96672 17.8756 6.96672C17.5449 6.96672 17.2766 6.6984 17.2766 6.36772C17.2766 6.20897 17.3395 6.05679 17.4521 5.94422L19.3612 4.03513C19.3612 4.03511 19.3612 4.03509 19.3612 4.03508L19.3613 4.03503L19.432 4.10575C19.6266 3.91064 19.943 3.91064 20.1381 4.10525C20.3332 4.29986 20.3332 4.61622 20.1381 4.81133L18.2284 6.72052C18.1351 6.81433 18.0078 6.86672 17.8756 6.86672C17.6002 6.86672 17.3766 6.64317 17.3766 6.36772C17.3766 6.23549 17.429 6.10874 17.5228 6.01493L19.432 4.10575"
              fill="currentColor"/>
        <path d="M22.501 12.4991H19.6372C19.3617 12.4991 19.1382 12.2755 19.1382 12.0001C19.1382 11.7247 19.3617 11.5011 19.6372 11.5011H22.501C22.7764 11.5011 23 11.7247 23 12.0001C23 12.2755 22.7764 12.4991 22.501 12.4991Z"
              fill="currentColor"/>
        <path fill-rule="evenodd" clip-rule="evenodd"
              d="M22.5009 12.5991H19.6371C19.3064 12.5991 19.0381 12.3308 19.0381 12.0001C19.0381 11.6694 19.3064 11.4011 19.6371 11.4011H22.5009C22.8315 11.4011 23.0999 11.6694 23.0999 12.0001C23.0999 12.3308 22.8315 12.5991 22.5009 12.5991ZM19.6371 12.4991H22.5009C22.7763 12.4991 22.9999 12.2756 22.9999 12.0001C22.9999 11.7247 22.7763 11.5011 22.5009 11.5011H19.6371C19.3616 11.5011 19.1381 11.7247 19.1381 12.0001C19.1381 12.2756 19.3616 12.4991 19.6371 12.4991Z"
              fill="currentColor"/>
    </g>
    <defs>
        <clipPath id="clip0_192_14987">
            <rect width="24" height="24" fill="currentColor"/>
        </clipPath>
    </defs>
</svg>
