<svg width="24" height="24" viewBox="0 0 24 24" fill="none" xmlns="http://www.w3.org/2000/svg">
    <g clip-path="url(#clip0_182_13724)">
        <path d="M1.62166 11.2527L1.62164 11.2528C0.65946 12.2153 0.659441 13.7811 1.62165 14.7434L9.25717 22.3791C9.72183 22.8438 10.342 23.0998 11.0021 23.1H11.0023C11.6627 23.1 12.2828 22.8438 12.7476 22.379L22.8817 12.2442C23.0213 12.1046 23.0998 11.9152 23.0998 11.7178L23.1 3.36811C23.0998 2.00713 21.9926 0.9 20.6317 0.9H12.2825C12.0851 0.9 11.8957 0.978536 11.7561 1.11813L1.62166 11.2527ZM11.6946 21.3261L11.6946 21.3261C11.5112 21.5097 11.2657 21.6109 11.0023 21.6109C10.7388 21.6109 10.4934 21.5097 10.31 21.3263L2.67449 13.6905C2.29292 13.3089 2.2929 12.6874 2.6745 12.3056L12.5908 2.38913H20.6317C21.1715 2.38913 21.6109 2.82847 21.6109 3.36828L21.6108 11.4094L11.6946 21.3261Z"
              fill="currentColor" stroke="#1F2121" stroke-width="0.2"/>
        <path d="M17.8024 3.98804C17.2122 3.98804 16.6574 4.21802 16.2401 4.63531C15.8228 5.05243 15.593 5.60723 15.593 6.19738C15.593 6.78753 15.8228 7.34234 16.2401 7.75963C16.6574 8.17693 17.2122 8.40673 17.8024 8.40673C18.3923 8.40673 18.9471 8.17693 19.3644 7.75963C19.7817 7.34234 20.0115 6.78753 20.0115 6.19738C20.0115 5.60723 19.7817 5.05243 19.3646 4.63531C18.9473 4.21802 18.3925 3.98804 17.8024 3.98804ZM18.3702 6.76519C18.2186 6.91698 18.0168 7.00048 17.8024 7.00048C17.5878 7.00048 17.3862 6.91698 17.2346 6.76519C17.0828 6.61358 16.9993 6.4118 16.9993 6.19738C16.9993 5.98297 17.0828 5.78118 17.2346 5.62957C17.3862 5.47778 17.5879 5.39428 17.8024 5.39428C18.0168 5.39428 18.2184 5.47778 18.3702 5.62957C18.522 5.78118 18.6055 5.98297 18.6055 6.19738C18.6055 6.4118 18.5218 6.61358 18.3702 6.76519Z"
              fill="currentColor"/>
    </g>
    <defs>
        <clipPath id="clip0_182_13724">
            <rect width="24" height="24" fill="currentColor"/>
        </clipPath>
    </defs>
</svg>

