<svg width="24" height="24" viewBox="0 0 24 24" fill="none" xmlns="http://www.w3.org/2000/svg">
    <path d="M0.376432 11.3456L6.05089 7.1595C6.51092 6.82012 7.16276 7.14984 7.16276 7.72092V9.81394H8.55814V2.09302C8.55809 0.938953 9.49704 0 10.6512 0H21.814C22.9659 0 23.907 0.938766 23.907 2.09302C23.907 2.7353 23.907 17.298 23.907 18.1835C23.907 18.8849 23.5586 19.536 22.9749 19.925L17.3935 23.646C16.004 24.5723 14.1395 23.5723 14.1395 21.9045V21.0233H10.6511C9.49695 21.0233 8.55804 20.0844 8.55804 18.9303V14.0001H7.16267V16.0931C7.16267 16.6682 6.50731 16.9912 6.05079 16.6545L0.376341 12.4684C-0.00128555 12.1898 -0.00123978 11.6242 0.376432 11.3456ZM16.6195 22.4849L22.2009 18.764C22.3955 18.6343 22.5116 18.4172 22.5116 18.1835C22.5116 17.9857 22.5116 4.70503 22.5116 2.09297C22.5116 2.007 22.4952 1.92502 22.4667 1.84894L16.0368 5.06391C15.8078 5.17837 15.5349 5.38969 15.5349 5.74608V21.9044C15.5349 22.4622 16.1551 22.7946 16.6195 22.4849ZM9.95342 18.9303C9.95342 19.315 10.2664 19.628 10.6511 19.628H14.1395V5.74612C14.1395 4.92408 14.6036 4.22053 15.4127 3.81591L20.2539 1.39537H10.6511C10.2664 1.39537 9.95342 1.70836 9.95342 2.09306V9.81403H12.0464C12.4317 9.81403 12.7441 10.1264 12.7441 10.5117V13.3024C12.7441 13.6877 12.4317 14.0001 12.0464 14.0001H9.95342V18.9303ZM5.76734 14.7114V13.3024C5.76734 12.9171 6.07972 12.6047 6.46503 12.6047H11.3487V11.2093H6.46503C6.07972 11.2093 5.76734 10.8969 5.76734 10.5116V9.10266L1.96582 11.907L5.76734 14.7114Z"
          fill="currentColor"/>
</svg>
