<svg width="24" height="16" viewBox="0 0 24 16" fill="none" xmlns="http://www.w3.org/2000/svg">
    <path d="M3.97314 11.7009C6.21482 13.7265 8.94174 15.0898 12 15.0898C15.0579 15.0898 17.7848 13.7268 20.0269 11.7009C21.859 10.0453 22.8646 8.40339 22.9065 8.3343C23.0312 8.12886 23.0312 7.87114 22.9065 7.66566C22.8646 7.59657 21.859 5.95464 20.0269 4.2991C17.7852 2.27351 15.0583 0.910156 12 0.910156C8.94213 0.910156 6.2152 2.27317 3.97314 4.29914C2.14104 5.95464 1.13539 7.59661 1.09346 7.6657C0.968848 7.87114 0.968848 8.12886 1.09346 8.33434C1.13539 8.40339 2.14104 10.0454 3.97314 11.7009ZM4.83741 5.25554C7.08175 3.22755 9.49161 2.19922 12 2.19922C14.4977 2.19922 16.8984 3.2193 19.1355 5.23109C20.366 6.33771 21.2078 7.45885 21.583 8.00043C21.2119 8.53694 20.3833 9.64136 19.1626 10.7444C16.9182 12.7725 14.5084 13.8008 12 13.8008C9.50231 13.8008 7.10161 12.7807 4.86452 10.7689C3.63398 9.66229 2.79223 8.54115 2.41702 7.99957C2.78806 7.46302 3.61671 6.35859 4.83741 5.25554Z"
          fill="currentColor"/>
    <path fill-rule="evenodd" clip-rule="evenodd"
          d="M23.0776 8.43802L23.0776 8.43807C23.0304 8.51586 22.0131 10.1757 20.161 11.8492C17.8931 13.8985 15.1205 15.2898 12 15.2898C8.87921 15.2898 6.10656 13.8982 3.8391 11.8492C1.98706 10.1757 0.969745 8.51585 0.922564 8.43816L0.922495 8.43805C0.759237 8.16884 0.759226 7.83117 0.922505 7.56198L0.922535 7.56193C0.969747 7.48415 1.98706 5.82427 3.8391 4.15076C6.10695 2.10147 8.87961 0.710159 12 0.710159C15.1209 0.710159 17.8935 2.10182 20.161 4.15071L20.0658 4.25611L20.161 4.15071C22.0131 5.82427 23.0304 7.48411 23.0776 7.56189L23.0776 7.56195C23.2409 7.83116 23.2409 8.16884 23.0776 8.43802ZM4.83746 5.25555C3.61676 6.3586 2.78811 7.46302 2.41707 7.99957C2.79228 8.54115 3.63403 9.66229 4.86457 10.7689C7.10165 12.7807 9.50236 13.8008 12 13.8008C14.5084 13.8008 16.9183 12.7725 19.1626 10.7444C20.3833 9.64137 21.2119 8.53694 21.583 8.00043C21.2078 7.45886 20.3661 6.33771 19.1355 5.2311C16.8984 3.2193 14.4977 2.19922 12 2.19922C9.49166 2.19922 7.0818 3.22755 4.83746 5.25555ZM21.3388 8.00051C20.9414 8.56164 20.1533 9.57964 19.0285 10.596C16.813 12.598 14.4491 13.6008 12 13.6008C9.56143 13.6008 7.20657 12.6061 4.99831 10.6202C3.86374 9.59989 3.06343 8.56651 2.66126 7.99948C3.05869 7.43834 3.84674 6.42034 4.97155 5.40394C7.1871 3.40196 9.55099 2.39922 12 2.39922C14.4387 2.39922 16.7935 3.39392 19.0018 5.37981C20.1363 6.40011 20.9367 7.43348 21.3388 8.00051ZM22.9066 8.3343C22.8647 8.40339 21.8591 10.0453 20.0269 11.7009C17.7848 13.7268 15.0579 15.0898 12 15.0898C8.94179 15.0898 6.21487 13.7265 3.97319 11.7009C2.14108 10.0454 1.13544 8.40339 1.09351 8.33434C0.968897 8.12887 0.968897 7.87114 1.09351 7.66571C1.13544 7.59661 2.14108 5.95465 3.97319 4.29915C6.21525 2.27317 8.94218 0.910159 12 0.910159C15.0583 0.910159 17.7852 2.27351 20.0269 4.2991C21.8591 5.95465 22.8647 7.59657 22.9066 7.66566C23.0312 7.87114 23.0312 8.12887 22.9066 8.3343Z"
          fill="currentColor"/>
    <path d="M12 12.5117C14.4878 12.5117 16.5117 10.4878 16.5117 8C16.5117 5.51224 14.4878 3.48828 12 3.48828C9.51224 3.48828 7.48828 5.51224 7.48828 8C7.48828 10.4878 9.51224 12.5117 12 12.5117ZM12 4.77734C13.777 4.77734 15.2227 6.22303 15.2227 8C15.2227 9.77697 13.777 11.2227 12 11.2227C10.223 11.2227 8.77734 9.77697 8.77734 8C8.77734 6.22303 10.223 4.77734 12 4.77734Z"
          fill="currentColor"/>
    <path fill-rule="evenodd" clip-rule="evenodd"
          d="M16.7118 8C16.7118 10.5982 14.5983 12.7117 12 12.7117C9.40183 12.7117 7.28833 10.5982 7.28833 8C7.28833 5.40178 9.40183 3.28828 12 3.28828C14.5983 3.28828 16.7118 5.40178 16.7118 8ZM15.0227 8C15.0227 6.33349 13.6666 4.97735 12 4.97735C10.3335 4.97735 8.97739 6.33349 8.97739 8C8.97739 9.66652 10.3335 11.0227 12 11.0227C13.6666 11.0227 15.0227 9.66652 15.0227 8ZM16.5118 8C16.5118 10.4878 14.4878 12.5117 12 12.5117C9.51229 12.5117 7.48833 10.4878 7.48833 8C7.48833 5.51224 9.51229 3.48828 12 3.48828C14.4878 3.48828 16.5118 5.51224 16.5118 8ZM15.2227 8C15.2227 6.22303 13.777 4.77735 12 4.77735C10.2231 4.77735 8.77739 6.22303 8.77739 8C8.77739 9.77698 10.2231 11.2227 12 11.2227C13.777 11.2227 15.2227 9.77698 15.2227 8Z"
          fill="currentColor"/>
    <path d="M12 9.93359C13.0662 9.93359 13.9336 9.06618 13.9336 8C13.9336 6.93382 13.0662 6.06641 12 6.06641C10.9338 6.06641 10.0664 6.93382 10.0664 8C10.0664 9.06618 10.9338 9.93359 12 9.93359Z"
          fill="currentColor"/>
    <path fill-rule="evenodd" clip-rule="evenodd"
          d="M14.1336 8C14.1336 9.17664 13.1767 10.1336 12 10.1336C10.8234 10.1336 9.86646 9.17664 9.86646 8C9.86646 6.82336 10.8234 5.86641 12 5.86641C13.1767 5.86641 14.1336 6.82336 14.1336 8ZM13.9336 8C13.9336 9.06619 13.0662 9.9336 12 9.9336C10.9339 9.9336 10.0665 9.06619 10.0665 8C10.0665 6.93382 10.9339 6.06641 12 6.06641C13.0662 6.06641 13.9336 6.93382 13.9336 8Z"
          fill="currentColor"/>
</svg>
