<svg width="24" height="25" viewBox="0 0 24 25" fill="none" xmlns="http://www.w3.org/2000/svg">
    <g clip-path="url(#clip0_497_6214)">
        <path d="M12 12.0862V24.0862" stroke="#556080" stroke-width="2" stroke-miterlimit="10" stroke-linecap="round"/>
        <path d="M12.0001 12.0862C15.1996 12.0862 17.7932 9.49255 17.7932 6.2931C17.7932 3.09366 15.1996 0.5 12.0001 0.5C8.80069 0.5 6.20703 3.09366 6.20703 6.2931C6.20703 9.49255 8.80069 12.0862 12.0001 12.0862Z"
              fill="#DD352E"/>
        <path d="M9.93083 5.87936C10.6164 5.87936 11.1722 5.32358 11.1722 4.63799C11.1722 3.95239 10.6164 3.39661 9.93083 3.39661C9.24524 3.39661 8.68945 3.95239 8.68945 4.63799C8.68945 5.32358 9.24524 5.87936 9.93083 5.87936Z"
              fill="#F76363"/>
    </g>
    <defs>
        <clipPath id="clip0_497_6214">
            <rect width="24" height="24" fill="currentColor" transform="translate(0 0.5)"/>
        </clipPath>
    </defs>
</svg>
