<svg width="29" height="30" viewBox="0 0 29 30" fill="none" xmlns="http://www.w3.org/2000/svg">
    <path d="M24.4874 4.95584C23.1886 3.6439 21.6416 2.6037 19.9365 1.89591C18.2315 1.18812 16.4026 0.826905 14.5566 0.833336C6.82155 0.833336 0.517386 7.1375 0.517386 14.8725C0.517386 17.3517 1.16905 19.76 2.38739 21.885L0.404053 29.1667L7.84155 27.2117C9.89572 28.3308 12.2049 28.9258 14.5566 28.9258C22.2916 28.9258 28.5957 22.6217 28.5957 14.8867C28.5957 11.1325 27.1366 7.605 24.4874 4.95584ZM14.5566 26.5458C12.4599 26.5458 10.4057 25.9792 8.60655 24.9167L8.18155 24.6617L3.76155 25.8233L4.93739 21.5167L4.65405 21.0775C3.48919 19.2174 2.87067 17.0673 2.86905 14.8725C2.86905 8.44084 8.11072 3.19917 14.5424 3.19917C17.6591 3.19917 20.5916 4.4175 22.7874 6.6275C23.8747 7.70978 24.7363 8.99711 25.3224 10.4149C25.9084 11.8326 26.2073 13.3526 26.2016 14.8867C26.2299 21.3183 20.9882 26.5458 14.5566 26.5458ZM20.9599 17.8192C20.6057 17.6492 18.8774 16.7992 18.5657 16.6717C18.2399 16.5583 18.0132 16.5017 17.7724 16.8417C17.5316 17.1958 16.8657 17.9892 16.6674 18.2158C16.4691 18.4567 16.2566 18.485 15.9024 18.3008C15.5482 18.1308 14.4149 17.7483 13.0832 16.5583C12.0349 15.6233 11.3407 14.4758 11.1282 14.1217C10.9299 13.7675 11.0999 13.5833 11.2841 13.3992C11.4399 13.2433 11.6382 12.9883 11.8082 12.79C11.9782 12.5917 12.0491 12.4358 12.1624 12.2092C12.2757 11.9683 12.2191 11.77 12.1341 11.6C12.0491 11.43 11.3407 9.70167 11.0574 8.99334C10.7741 8.31334 10.4766 8.39834 10.2641 8.38417H9.58405C9.34322 8.38417 8.97489 8.46917 8.64905 8.82334C8.33739 9.1775 7.43072 10.0275 7.43072 11.7558C7.43072 13.4842 8.69155 15.1558 8.86155 15.3825C9.03155 15.6233 11.3407 19.165 14.8541 20.6808C15.6899 21.0492 16.3416 21.2617 16.8516 21.4175C17.6874 21.6867 18.4524 21.6442 19.0616 21.5592C19.7416 21.46 21.1441 20.7092 21.4274 19.8875C21.7249 19.0658 21.7249 18.3717 21.6257 18.2158C21.5266 18.06 21.3141 17.9892 20.9599 17.8192Z"
          fill="#00AC47"/>
</svg>
