<svg width="23" height="34" viewBox="0 0 23 34" fill="none" xmlns="http://www.w3.org/2000/svg">
    <path d="M4.64312 2.98802L4.64312 12.655L1.4604 15.8244C-0.336485 17.6212 -0.494332 20.4726 1.09311 22.4567L5.95398 28.5328C5.15717 29.0701 4.6321 29.9808 4.6321 31.0119L4.6321 33.004C4.63203 33.5541 5.07795 34 5.62799 34L21.564 34C22.114 34 22.56 33.5541 22.56 33.004L22.56 31.012C22.56 29.8435 21.8854 28.8301 20.9055 28.3392C22.0034 25.3588 22.56 22.2387 22.56 19.0529C22.56 18.6318 22.56 15.4976 22.56 15.0761C22.56 13.4285 21.2196 12.0881 19.572 12.0881C19.1832 12.0881 18.8118 12.1635 18.4707 12.2993C18.1252 11.0313 16.9641 10.0961 15.588 10.0961C15.1992 10.0961 14.8278 10.1715 14.4867 10.3073C14.1412 9.03929 12.9801 8.10409 11.604 8.10409C11.2541 8.10409 10.9182 8.16511 10.6058 8.27614L10.6058 2.98802C10.6058 1.34041 9.26539 -4.05003e-07 7.61779 -3.32984e-07L7.61115 -3.32694e-07C5.96726 -2.60837e-07 4.64312 1.34041 4.64312 2.98802ZM19.572 30.016C20.1212 30.016 20.568 30.4628 20.568 31.012L20.568 32.008L6.62402 32.008L6.62402 31.012C6.62402 30.4628 7.0708 30.016 7.62005 30.016L19.572 30.016ZM7.61779 1.99199C8.16697 1.99199 8.6271 2.43877 8.6271 2.98802L8.6271 15.0661C8.6271 15.6162 9.05973 16.0621 9.60984 16.0621C10.1599 16.0621 10.6059 15.6162 10.6059 15.0661L10.6059 11.1357C10.6065 11.1211 10.6081 11.1068 10.6081 11.0921C10.6081 10.5429 11.0548 10.0961 11.6041 10.0961C12.1533 10.0961 12.6001 10.5429 12.6001 11.0921L12.6001 15.0761C12.6001 15.6261 13.046 16.0721 13.5961 16.0721C14.1463 16.0721 14.5922 15.6262 14.5922 15.0761L14.5922 13.0841C14.5922 12.5349 15.039 12.0881 15.5882 12.0881C16.1374 12.0881 16.5842 12.5348 16.5842 13.0841L16.5842 15.0761C16.5842 15.6261 17.0301 16.0721 17.5803 16.0721C18.1304 16.0721 18.5763 15.6262 18.5763 15.0761C18.5763 14.5269 19.0231 14.08 19.5723 14.08C20.1216 14.08 20.5683 14.5268 20.5683 15.0761C20.5683 15.498 20.5683 18.6318 20.5683 19.0529C20.5683 22.1358 20.0059 25.1522 18.8961 28.024L8.09784 28.024L2.64854 21.2124C1.69608 20.022 1.79084 18.3112 2.86894 17.233L4.64319 15.4721C4.64319 18.8365 4.63874 15.4986 4.63874 19.0601C4.63874 19.6102 5.08466 20.0561 5.63477 20.0561C6.18481 20.0561 6.61751 19.6102 6.61751 19.0601C6.61751 18.8416 6.62196 3.20696 6.62196 2.98808C6.62196 2.4389 7.06575 1.99205 7.61135 1.99205L7.61779 1.99199Z"
          fill="currentColor"/>
</svg>
