<svg width="22" height="22" viewBox="0 0 22 22" fill="none" xmlns="http://www.w3.org/2000/svg">
    <g clip-path="url(#clip0_561_162)">
        <path d="M12.0083 0.916992C9.79157 0.927781 7.64103 1.67363 5.89362 3.03768C4.14622 4.40173 2.90068 6.30691 2.35214 8.45474L1.68114 7.43999C1.61762 7.33376 1.53323 7.24148 1.43308 7.16874C1.33293 7.096 1.21908 7.04429 1.09841 7.01675C0.977731 6.9892 0.852725 6.98637 0.730928 7.00845C0.609131 7.03052 0.493065 7.07703 0.389731 7.14518C0.286397 7.21332 0.197935 7.30169 0.12968 7.40495C0.0614247 7.50821 0.0147899 7.62423 -0.007412 7.746C-0.0296139 7.86778 -0.026923 7.99278 0.000498487 8.11349C0.02792 8.2342 0.0795039 8.3481 0.15214 8.44833L2.16881 11.5045C2.30889 11.7005 2.51543 11.839 2.74997 11.8941C2.98947 11.9416 3.23805 11.8939 3.44297 11.7612L6.46797 9.72341C6.57227 9.65828 6.6624 9.57283 6.73299 9.47215C6.80359 9.37146 6.8532 9.25761 6.87888 9.13735C6.90456 9.0171 6.90579 8.89291 6.88249 8.77217C6.85918 8.65144 6.81183 8.53662 6.74323 8.43457C6.67464 8.33251 6.58622 8.2453 6.48323 8.17812C6.38024 8.11094 6.26478 8.06517 6.14373 8.04353C6.02269 8.02189 5.89853 8.02483 5.77864 8.05217C5.65875 8.07951 5.54559 8.13069 5.44589 8.20266L4.06997 9.13033C4.43616 7.64385 5.21281 6.29024 6.3113 5.22392C7.40979 4.15761 8.78589 3.42153 10.2826 3.09968C11.7793 2.77783 13.3363 2.88316 14.776 3.40366C16.2158 3.92415 17.4802 4.83885 18.4251 6.0434C19.3699 7.24794 19.9572 8.69383 20.1198 10.2161C20.2825 11.7383 20.014 13.2757 19.345 14.6526C18.6759 16.0296 17.6333 17.1908 16.3361 18.0038C15.0388 18.8167 13.5392 19.2487 12.0083 19.2503C10.696 19.2468 9.40385 18.9264 8.24186 18.3165C7.07986 17.7065 6.08233 16.825 5.33406 15.7468C5.26704 15.6439 5.18003 15.5555 5.07819 15.4869C4.97636 15.4183 4.86177 15.3708 4.74123 15.3473C4.6207 15.3238 4.49667 15.3248 4.37651 15.3502C4.25636 15.3756 4.14253 15.4248 4.04178 15.495C3.94103 15.5652 3.85542 15.655 3.79003 15.7589C3.72463 15.8629 3.68079 15.9789 3.66111 16.1001C3.64142 16.2213 3.64629 16.3453 3.67543 16.4646C3.70456 16.5839 3.75737 16.6961 3.83072 16.7946C5.0472 18.5483 6.79415 19.8656 8.81483 20.5528C10.8355 21.24 13.0233 21.2609 15.0568 20.6124C17.0902 19.964 18.862 18.6803 20.1118 16.9501C21.3616 15.22 22.0234 13.1345 22 11.0003C22.009 8.33916 20.9621 5.78307 19.089 3.89275C17.2159 2.00244 14.6694 0.93227 12.0083 0.916992Z"
              fill="#000000"/>
        <path d="M11.9167 5.4541C11.6736 5.4541 11.4404 5.55068 11.2685 5.72259C11.0966 5.8945 11 6.12765 11 6.37077V10.9999C11.0039 11.2422 11.0999 11.474 11.2686 11.648L14.0186 14.4228C14.1912 14.5926 14.4232 14.6883 14.6654 14.6895C14.9075 14.6907 15.1405 14.5973 15.3148 14.4292C15.4873 14.258 15.5849 14.0253 15.5859 13.7822C15.5869 13.5392 15.4914 13.3056 15.3203 13.133L12.8333 10.6232V6.37077C12.8333 6.12765 12.7368 5.8945 12.5648 5.72259C12.3929 5.55068 12.1598 5.4541 11.9167 5.4541Z"
              fill="#000000"/>
    </g>
    <defs>
        <clipPath id="clip0_561_162">
            <rect width="22" height="22" fill="currentColor"/>
        </clipPath>
    </defs>
</svg>
