<svg width="25" height="24" viewBox="0 0 25 24" fill="none" xmlns="http://www.w3.org/2000/svg">
    <path d="M11.3549 3.43555C11.6695 3.15513 12.0776 3 12.5006 3C12.9236 3 13.3316 3.15513 13.6463 3.43555L19.932 9.0379C20.1107 9.19731 20.2536 9.39222 20.3515 9.60998C20.4493 9.82774 20.4999 10.0635 20.5 10.3019V18.2996C20.5 18.7506 20.3194 19.1831 19.9979 19.502C19.6764 19.8208 19.2404 20 18.7857 20H15.9286C15.4739 20 15.0379 19.8208 14.7164 19.502C14.3949 19.1831 14.2143 18.7506 14.2143 18.2996V14.3319C14.2143 14.1816 14.1541 14.0374 14.0469 13.9311C13.9398 13.8248 13.7944 13.7651 13.6429 13.7651H11.3571C11.2056 13.7651 11.0602 13.8248 10.9531 13.9311C10.8459 14.0374 10.7857 14.1816 10.7857 14.3319V18.2996C10.7857 18.7506 10.6051 19.1831 10.2836 19.502C9.96212 19.8208 9.52609 20 9.07143 20H6.21429C5.75963 20 5.32359 19.8208 5.0021 19.502C4.68061 19.1831 4.5 18.7506 4.5 18.2996V10.3019C4.5 9.82009 4.70571 9.36098 5.06914 9.0379L11.3549 3.43555ZM12.8817 4.27896C12.7769 4.18559 12.6409 4.13395 12.5 4.13395C12.3591 4.13395 12.2231 4.18559 12.1183 4.27896L5.83257 9.88131C5.77303 9.93433 5.72537 9.99916 5.69269 10.0716C5.66001 10.1441 5.64303 10.2225 5.64286 10.3019V18.2996C5.64286 18.4499 5.70306 18.5941 5.81022 18.7004C5.91739 18.8067 6.06273 18.8664 6.21429 18.8664H9.07143C9.22298 18.8664 9.36833 18.8067 9.47549 18.7004C9.58265 18.5941 9.64286 18.4499 9.64286 18.2996V14.3319C9.64286 13.8809 9.82347 13.4484 10.145 13.1295C10.4665 12.8106 10.9025 12.6315 11.3571 12.6315H13.6429C14.0975 12.6315 14.5335 12.8106 14.855 13.1295C15.1765 13.4484 15.3571 13.8809 15.3571 14.3319V18.2996C15.3571 18.4499 15.4173 18.5941 15.5245 18.7004C15.6317 18.8067 15.777 18.8664 15.9286 18.8664H18.7857C18.9373 18.8664 19.0826 18.8067 19.1898 18.7004C19.2969 18.5941 19.3571 18.4499 19.3571 18.2996V10.3019C19.357 10.2225 19.34 10.1441 19.3073 10.0716C19.2746 9.99916 19.227 9.93433 19.1674 9.88131L12.8817 4.27896Z"
          fill="#000000"/>
    <path fill-rule="evenodd" clip-rule="evenodd"
          d="M11.0222 3.06227C11.4288 2.6999 11.9554 2.5 12.5006 2.5C13.0458 2.5 13.5723 2.6999 13.979 3.06227L20.2647 8.66463C20.4957 8.87068 20.6808 9.12297 20.8076 9.40504C20.9343 9.68711 20.9999 9.99264 21 10.3018V18.2996C21 18.8845 20.7657 19.4446 20.35 19.8569C19.9344 20.2691 19.3717 20.5 18.7857 20.5H15.9286C15.3426 20.5 14.7798 20.2691 14.3643 19.8569C13.9486 19.4446 13.7143 18.8845 13.7143 18.2996V14.3319C13.7143 14.3155 13.7078 14.2989 13.6948 14.2861C13.6817 14.2731 13.6631 14.2651 13.6429 14.2651H11.3571C11.3369 14.2651 11.3183 14.2731 11.3052 14.2861C11.2922 14.2989 11.2857 14.3155 11.2857 14.3319V18.2996C11.2857 18.8845 11.0514 19.4446 10.6357 19.8569C10.2202 20.2691 9.65739 20.5 9.07143 20.5H6.21429C5.62832 20.5 5.06555 20.2691 4.64999 19.8569C4.23428 19.4446 4 18.8845 4 18.2996V10.3019C4 9.67697 4.267 9.08207 4.73675 8.66438C4.73669 8.66443 4.73681 8.66432 4.73675 8.66438L11.0222 3.06227ZM5.06914 9.0379C4.70571 9.36098 4.5 9.82009 4.5 10.3019V18.2996C4.5 18.7506 4.68061 19.1831 5.0021 19.502C5.32359 19.8208 5.75963 20 6.21429 20H9.07143C9.52609 20 9.96212 19.8208 10.2836 19.502C10.6051 19.1831 10.7857 18.7506 10.7857 18.2996V14.3319C10.7857 14.1816 10.8459 14.0374 10.9531 13.9311C11.0602 13.8248 11.2056 13.7651 11.3571 13.7651H13.6429C13.7944 13.7651 13.9398 13.8248 14.0469 13.9311C14.1541 14.0374 14.2143 14.1816 14.2143 14.3319V18.2996C14.2143 18.7506 14.3949 19.1831 14.7164 19.502C15.0379 19.8208 15.4739 20 15.9286 20H18.7857C19.2404 20 19.6764 19.8208 19.9979 19.502C20.3194 19.1831 20.5 18.7506 20.5 18.2996V10.3019C20.4999 10.0635 20.4493 9.82774 20.3515 9.60998C20.2536 9.39222 20.1107 9.19731 19.932 9.0379L13.6463 3.43555C13.3316 3.15513 12.9236 3 12.5006 3C12.0776 3 11.6695 3.15513 11.3549 3.43555L5.06914 9.0379ZM6.16507 10.2547C6.15777 10.2612 6.15219 10.2689 6.14846 10.2772C6.14478 10.2854 6.14291 10.294 6.14286 10.3027V18.2996C6.14286 18.316 6.14939 18.3325 6.16234 18.3454C6.17543 18.3584 6.19404 18.3664 6.21429 18.3664H9.07143C9.09168 18.3664 9.11029 18.3584 9.12337 18.3454C9.13633 18.3325 9.14286 18.316 9.14286 18.2996V14.3319C9.14286 13.747 9.37714 13.1869 9.79284 12.7745C10.2084 12.3623 10.7712 12.1315 11.3571 12.1315H13.6429C14.2288 12.1315 14.7916 12.3623 15.2072 12.7745C15.6229 13.1869 15.8571 13.747 15.8571 14.3319V18.2996C15.8571 18.316 15.8637 18.3325 15.8766 18.3454C15.8897 18.3584 15.9083 18.3664 15.9286 18.3664H18.7857C18.806 18.3664 18.8246 18.3584 18.8377 18.3454C18.8506 18.3325 18.8571 18.316 18.8571 18.2996L18.8571 10.303C18.8571 10.3029 18.8571 10.3031 18.8571 10.303C18.8571 10.2943 18.8552 10.2854 18.8515 10.2772C18.8478 10.2689 18.8422 10.2612 18.8349 10.2547L12.5492 4.65238C12.5492 4.65236 12.5492 4.6524 12.5492 4.65238C12.5363 4.64091 12.5188 4.63395 12.5 4.63395C12.4812 4.63395 12.4638 4.64083 12.4509 4.65229C12.4508 4.65232 12.4509 4.65227 12.4509 4.65229L6.16507 10.2547ZM12.8817 4.27896C12.7769 4.18559 12.6409 4.13395 12.5 4.13395C12.3591 4.13395 12.2231 4.18559 12.1183 4.27896L5.83257 9.88131C5.77303 9.93433 5.72537 9.99916 5.69269 10.0716C5.66001 10.1441 5.64303 10.2225 5.64286 10.3019V18.2996C5.64286 18.4499 5.70306 18.5941 5.81022 18.7004C5.91739 18.8067 6.06273 18.8664 6.21429 18.8664H9.07143C9.22298 18.8664 9.36833 18.8067 9.47549 18.7004C9.58265 18.5941 9.64286 18.4499 9.64286 18.2996V14.3319C9.64286 13.8809 9.82347 13.4484 10.145 13.1295C10.4665 12.8106 10.9025 12.6315 11.3571 12.6315H13.6429C14.0975 12.6315 14.5336 12.8106 14.855 13.1295C15.1765 13.4484 15.3571 13.8809 15.3571 14.3319V18.2996C15.3571 18.4499 15.4173 18.5941 15.5245 18.7004C15.6317 18.8067 15.777 18.8664 15.9286 18.8664H18.7857C18.9373 18.8664 19.0826 18.8067 19.1898 18.7004C19.2969 18.5941 19.3571 18.4499 19.3571 18.2996V10.3019C19.357 10.2225 19.34 10.1441 19.3073 10.0716C19.2746 9.99916 19.227 9.93433 19.1674 9.88131L12.8817 4.27896Z"
          fill="#000000"/>
</svg>
