<svg width="25" height="25" viewBox="0 0 25 25" fill="none" xmlns="http://www.w3.org/2000/svg">
    <g clip-path="url(#clip0_414_3420)">
        <path d="M12.5001 0.941626C6.12206 0.941626 0.941748 6.12194 0.941748 12.5C0.941748 18.878 6.12206 24.0583 12.5001 24.0583C18.8781 24.0583 24.0584 18.878 24.0584 12.5C24.0584 6.12194 18.8781 0.941626 12.5001 0.941626ZM12.5001 22.8643C6.78473 22.8643 2.13572 18.2153 2.13572 12.5C2.13572 6.78461 6.78473 2.1356 12.5001 2.1356C18.2154 2.1356 22.8644 6.78461 22.8644 12.5C22.8644 18.2153 18.2154 22.8643 12.5001 22.8643Z"
              fill="currentColor" stroke="#1F2121" stroke-width="0.2"/>
        <path d="M19.0061 9.68913H15.3109V5.99395C15.3109 5.63752 15.0252 5.35178 14.6688 5.35178H10.3314C9.97499 5.35178 9.68925 5.63752 9.68925 5.99395V9.68913H5.99407C5.63764 9.68913 5.3519 9.97487 5.3519 10.3313V14.6686C5.3519 15.0251 5.63764 15.3108 5.99407 15.3108H9.68925V19.006C9.68925 19.3624 9.97499 19.6482 10.3314 19.6482H14.6688C15.0252 19.6482 15.3109 19.3624 15.3109 19.006V15.3108H19.0061C19.3626 15.3108 19.6483 15.0251 19.6483 14.6686V10.3313H19.6488L19.6478 10.3213C19.6135 9.97818 19.3373 9.68913 19.0061 9.68913ZM18.3941 14.0265H14.6688C14.3123 14.0265 14.0266 14.3122 14.0266 14.6686V18.3638H10.9736V14.6686C10.9736 14.3122 10.6879 14.0265 10.3314 14.0265H6.63624V10.9735H10.3314C10.6879 10.9735 10.9736 10.6877 10.9736 10.3313V6.63612H14.0567V10.3313C14.0567 10.6877 14.3425 10.9735 14.6989 10.9735H18.3941V14.0265Z"
              fill="currentColor" stroke="#1F2121" stroke-width="0.2"/>
    </g>
    <defs>
        <clipPath id="clip0_414_3420">
            <rect width="25" height="25" fill="currentColor"/>
        </clipPath>
    </defs>
</svg>
