<svg width="16" height="18" viewBox="0 0 16 18" fill="none" xmlns="http://www.w3.org/2000/svg">
    <path d="M8.00003 10.0862C2.84116 10.0862 0 12.5267 0 16.9583C0 17.3044 0.280517 17.5849 0.626629 17.5849H15.3734C15.7195 17.5849 16 17.3044 16 16.9583C16.0001 12.5269 13.1589 10.0862 8.00003 10.0862ZM1.27606 16.3316C1.52254 13.0182 3.78154 11.3395 8.00003 11.3395C12.2185 11.3395 14.4776 13.0182 14.7242 16.3316H1.27606Z"
          fill="currentColor"/>
    <path d="M7.99992 0.415161C5.63019 0.415161 3.84326 2.23804 3.84326 4.65518C3.84326 7.14312 5.70792 9.16694 7.99992 9.16694C10.2919 9.16694 12.1566 7.14312 12.1566 4.65538C12.1566 2.23804 10.3696 0.415161 7.99992 0.415161ZM7.99992 7.91388C6.39887 7.91388 5.09652 6.45214 5.09652 4.65538C5.09652 2.92463 6.31762 1.66842 7.99992 1.66842C9.65529 1.66842 10.9033 2.95239 10.9033 4.65538C10.9033 6.45214 9.60096 7.91388 7.99992 7.91388Z"
          fill="currentColor"/>
</svg>
