<svg width="24" height="24" viewBox="0 0 24 24" fill="none" xmlns="http://www.w3.org/2000/svg">
    <path fill-rule="evenodd" clip-rule="evenodd"
          d="M20.2687 2.04305C19.0517 0.833052 17.0477 1.04805 16.0287 2.41005L14.7667 4.09405C13.9367 5.20205 14.0107 6.75005 14.9957 7.72905L15.2337 7.96705C15.2606 8.06698 15.2633 8.17186 15.2417 8.27305C15.1787 8.68105 14.8377 9.54505 13.4097 10.9651C11.9817 12.3851 11.1117 12.7251 10.6977 12.7891C10.5935 12.8112 10.4855 12.8081 10.3827 12.7801L9.97468 12.3741C9.09868 11.5041 7.75468 11.3411 6.67068 11.9301L4.76068 12.9701C3.12368 13.8581 2.71068 16.0821 4.05068 17.4151L5.47168 18.8271C5.91968 19.2721 6.52168 19.6431 7.25568 19.7121C9.06568 19.8811 13.2827 19.6651 17.7157 15.2581C21.8527 11.1441 22.6467 7.55605 22.7477 5.78805C22.7977 4.89405 22.3757 4.13805 21.8377 3.60405L20.2687 2.04305ZM17.2287 3.30905C17.7357 2.63205 18.6797 2.57805 19.2117 3.10705L20.7817 4.66705C21.1117 4.99505 21.2697 5.35705 21.2497 5.70305C21.1697 7.10805 20.5297 10.3451 16.6577 14.1951C12.5957 18.2331 8.84468 18.3541 7.39468 18.2181C7.09868 18.1911 6.80468 18.0371 6.52968 17.7641L5.10968 16.3511C4.53168 15.7771 4.65868 14.7311 5.47668 14.2871L7.38668 13.2481C7.91468 12.9621 8.53268 13.0561 8.91668 13.4381L9.37168 13.8911L9.90168 13.3591C9.37168 13.8911 9.37368 13.8921 9.37368 13.8921L9.37468 13.8941L9.37768 13.8971L9.38468 13.9031L9.39968 13.9171C9.4422 13.9559 9.48767 13.9913 9.53568 14.0231C9.61568 14.0761 9.72168 14.1351 9.85468 14.1841C10.1247 14.2851 10.4827 14.3391 10.9247 14.2711C11.7917 14.1381 12.9407 13.5471 14.4677 12.0291C15.9937 10.5111 16.5897 9.36905 16.7237 8.50305C16.7927 8.06105 16.7377 7.70305 16.6357 7.43305C16.5791 7.28132 16.4988 7.13955 16.3977 7.01305L16.3657 6.97805L16.3517 6.96305L16.3457 6.95705L16.3427 6.95405L16.3407 6.95205L16.0527 6.66605C15.6247 6.23905 15.5647 5.53205 15.9677 4.99305L17.2287 3.30905Z"
          fill="currentColor"/>
</svg>
