<svg width="48" height="49" viewBox="0 0 48 49" fill="none" xmlns="http://www.w3.org/2000/svg">
    <g clip-path="url(#clip0_280_2389)">
        <path d="M24 0.5C10.7453 0.5 0 11.2452 0 24.5C0 37.7548 10.7453 48.5 24 48.5C37.2547 48.5 48 37.7548 48 24.5C48 11.2452 37.2547 0.5 24 0.5ZM32.295 25.7722L20.295 33.2722C20.0522 33.4238 19.7761 33.5 19.5 33.5C19.2499 33.5 18.9994 33.4378 18.7727 33.3118C18.2959 33.0474 18 32.5456 18 32V17C18 16.4544 18.2959 15.9526 18.7727 15.6882C19.2495 15.4224 19.8325 15.4385 20.295 15.7278L32.295 23.2278C32.7334 23.5025 33 23.983 33 24.5C33 25.017 32.7334 25.4976 32.295 25.7722Z"
              fill="#3871E4"/>
    </g>
    <defs>
        <clipPath id="clip0_280_2389">
            <rect width="48" height="48" fill="currentColor" transform="translate(0 0.5)"/>
        </clipPath>
    </defs>
</svg>
