<svg width="22" height="22" viewBox="0 0 22 22" fill="none" xmlns="http://www.w3.org/2000/svg">
    <g clip-path="url(#clip0_505_6220)">
        <path d="M12.0084 0.916748C9.79163 0.927537 7.64109 1.67338 5.89368 3.03743C4.14628 4.40149 2.90074 6.30667 2.3522 8.4545L1.6812 7.43975C1.61768 7.33351 1.5333 7.24124 1.43314 7.1685C1.33299 7.09575 1.21914 7.04405 1.09847 7.0165C0.977792 6.98895 0.852786 6.98613 0.730989 7.0082C0.609192 7.03027 0.493126 7.07679 0.389792 7.14493C0.286459 7.21308 0.197997 7.30145 0.129741 7.40471C0.0614857 7.50797 0.0148509 7.62398 -0.00735096 7.74576C-0.0295529 7.86753 -0.026862 7.99254 0.000559522 8.11325C0.027981 8.23395 0.0795649 8.34785 0.152201 8.44808L2.16887 11.5042C2.30895 11.7003 2.51549 11.8387 2.75003 11.8938C2.98953 11.9413 3.23811 11.8937 3.44303 11.7609L6.46803 9.72317C6.57233 9.65803 6.66246 9.57258 6.73305 9.4719C6.80365 9.37122 6.85326 9.25736 6.87894 9.13711C6.90463 9.01686 6.90585 8.89267 6.88255 8.77193C6.85924 8.65119 6.81189 8.53638 6.7433 8.43432C6.6747 8.33227 6.58628 8.24505 6.48329 8.17787C6.3803 8.1107 6.26484 8.06493 6.1438 8.04329C6.02275 8.02165 5.89859 8.02459 5.7787 8.05193C5.65881 8.07926 5.54565 8.13044 5.44595 8.20242L4.07003 9.13008C4.43622 7.64361 5.21287 6.28999 6.31136 5.22368C7.40985 4.15736 8.78595 3.42129 10.2827 3.09944C11.7794 2.77758 13.3364 2.88291 14.7761 3.40341C16.2158 3.92391 17.4803 4.83861 18.4251 6.04315C19.37 7.2477 19.9573 8.69358 20.1199 10.2158C20.2826 11.7381 20.0141 13.2754 19.345 14.6524C18.676 16.0294 17.6334 17.1906 16.3361 18.0035C15.0389 18.8165 13.5393 19.2484 12.0084 19.2501C10.696 19.2465 9.40392 18.9262 8.24192 18.3162C7.07992 17.7062 6.08239 16.8247 5.33412 15.7466C5.2671 15.6437 5.18009 15.5553 5.07825 15.4867C4.97642 15.418 4.86183 15.3706 4.74129 15.3471C4.62076 15.3236 4.49673 15.3246 4.37658 15.3499C4.25642 15.3753 4.14259 15.4246 4.04184 15.4948C3.9411 15.565 3.85548 15.6547 3.79009 15.7587C3.72469 15.8626 3.68085 15.9787 3.66117 16.0999C3.64148 16.2211 3.64635 16.345 3.67549 16.4643C3.70462 16.5836 3.75744 16.6958 3.83078 16.7943C5.04726 18.5481 6.79421 19.8653 8.81489 20.5526C10.8356 21.2398 13.0234 21.2607 15.0568 20.6122C17.0903 19.9637 18.8621 18.6801 20.1119 16.9499C21.3616 15.2197 22.0234 13.1343 22 11.0001C22.0091 8.33892 20.9622 5.78282 19.0891 3.89251C17.2159 2.0022 14.6695 0.932025 12.0084 0.916748Z"
              fill="currentColor"/>
 
    </g>
    <defs>
        <clipPath id="clip0_505_6220">
            <rect width="22" height="22" fill="currentColor"/>
        </clipPath>
    </defs>
</svg>
