<svg width="18" height="18" viewBox="0 0 18 18" fill="none" xmlns="http://www.w3.org/2000/svg">
    <path d="M17.826 3.77401L14.226 0.17401C14.1699 0.118401 14.1034 0.074406 14.0303 0.0445473C13.9572 0.0146885 13.879 -0.000446507 13.8 1.00286e-05H1.8C1.32261 1.00286e-05 0.864773 0.189652 0.527207 0.527218C0.189642 0.864783 0 1.32262 0 1.80001V16.2C0 16.6774 0.189642 17.1352 0.527207 17.4728C0.864773 17.8104 1.32261 18 1.8 18H16.2C16.6774 18 17.1352 17.8104 17.4728 17.4728C17.8103 17.1352 18 16.6774 18 16.2V4.20001C18.0004 4.12104 17.9853 4.04277 17.9555 3.96966C17.9256 3.89656 17.8816 3.83007 17.826 3.77401ZM11.4 1.20001V4.80001H6.6V1.20001H11.4ZM4.2 16.8V12.6C4.2 12.4409 4.26321 12.2883 4.37573 12.1757C4.48826 12.0632 4.64087 12 4.8 12H13.2C13.3591 12 13.5117 12.0632 13.6243 12.1757C13.7368 12.2883 13.8 12.4409 13.8 12.6V16.8H4.2ZM16.8 16.2C16.8 16.3591 16.7368 16.5117 16.6243 16.6243C16.5117 16.7368 16.3591 16.8 16.2 16.8H15V12.6C15 12.1226 14.8103 11.6648 14.4728 11.3272C14.1352 10.9896 13.6774 10.8 13.2 10.8H4.8C4.32261 10.8 3.86477 10.9896 3.52721 11.3272C3.18964 11.6648 3 12.1226 3 12.6V16.8H1.8C1.64087 16.8 1.48826 16.7368 1.37574 16.6243C1.26321 16.5117 1.2 16.3591 1.2 16.2V1.80001C1.2 1.64088 1.26321 1.48827 1.37574 1.37575C1.48826 1.26322 1.64087 1.20001 1.8 1.20001H5.4V4.80001C5.4 5.11827 5.52643 5.42349 5.75147 5.64854C5.97651 5.87358 6.28174 6.00001 6.6 6.00001H11.4C11.7183 6.00001 12.0235 5.87358 12.2485 5.64854C12.4736 5.42349 12.6 5.11827 12.6 4.80001V1.20001H13.554L16.8 4.44601V16.2Z"
          fill="currentColor"/>
</svg>
