<svg width="18" height="18" viewBox="0 0 18 18" fill="none" xmlns="http://www.w3.org/2000/svg">
    <path d="M8.05967 1C4.16701 1 1 4.15835 1 8.04041C1 11.9225 4.16704 15.0808 8.05967 15.0808C11.9523 15.0808 15.1194 11.9225 15.1194 8.04041C15.1194 4.15835 11.9523 1 8.05967 1ZM8.05967 13.9235C4.80508 13.9235 2.15732 11.2842 2.15732 8.04038C2.15732 4.79639 4.80508 2.15729 8.05967 2.15729C11.3143 2.15729 13.962 4.79639 13.962 8.04038C13.9621 11.2842 11.3143 13.9235 8.05967 13.9235Z"
          fill="currentColor"/>
    <path fill-rule="evenodd" clip-rule="evenodd"
          d="M0.5 8.04041C0.5 3.88092 3.89216 0.5 8.05967 0.5C12.2272 0.5 15.6194 3.88091 15.6194 8.04041C15.6194 12.1999 12.2272 15.5808 8.05967 15.5808C3.89219 15.5808 0.5 12.1999 0.5 8.04041ZM2.65732 8.04038C2.65732 11.0065 5.07969 13.4235 8.05967 13.4235C11.0397 13.4235 13.4621 11.0065 13.462 8.04038C13.462 5.07407 11.0397 2.65729 8.05967 2.65729C5.07968 2.65729 2.65732 5.07407 2.65732 8.04038ZM1 8.04041C1 4.15835 4.16701 1 8.05967 1C11.9523 1 15.1194 4.15835 15.1194 8.04041C15.1194 11.9225 11.9523 15.0808 8.05967 15.0808C4.16704 15.0808 1 11.9225 1 8.04041ZM2.15732 8.04038C2.15732 11.2842 4.80508 13.9235 8.05967 13.9235C11.3143 13.9235 13.9621 11.2842 13.962 8.04038C13.962 4.79639 11.3143 2.15729 8.05967 2.15729C4.80508 2.15729 2.15732 4.79639 2.15732 8.04038Z"
          fill="currentColor"/>
    <path d="M16.8392 15.9821L13.0393 12.2015C12.8126 11.9763 12.4463 11.9772 12.2208 12.2037C11.9955 12.4303 11.9965 12.7966 12.223 13.0221L16.0228 16.8027C16.1359 16.915 16.2833 16.9711 16.431 16.9711C16.5797 16.9711 16.7282 16.9142 16.8413 16.8006C17.0666 16.5739 17.0656 16.2076 16.8392 15.9821Z"
          fill="currentColor"/>
    <path fill-rule="evenodd" clip-rule="evenodd"
          d="M17.1919 15.6277C17.6139 16.0479 17.6157 16.7305 17.1958 17.1529C16.9852 17.3646 16.7073 17.4709 16.4309 17.4709C16.1562 17.4709 15.8806 17.3661 15.6704 17.1573L11.8702 13.3764C11.4483 12.9562 11.4462 12.2734 11.8661 11.851C12.2863 11.429 12.9693 11.4269 13.3917 11.8468L17.1919 15.6277ZM13.0392 12.2014L16.8391 15.982C17.0655 16.2075 17.0665 16.5738 16.8412 16.8004M13.0392 12.2014C12.8125 11.9761 12.4462 11.9771 12.2207 12.2035L13.0392 12.2014ZM12.2207 12.2035C11.9955 12.4302 11.9964 12.7964 12.2229 13.022L12.2207 12.2035ZM12.2229 13.022L16.0228 16.8026L12.2229 13.022Z"
          fill="currentColor"/>
</svg>
