<svg width="20" height="24" viewBox="0 0 20 24" fill="none" xmlns="http://www.w3.org/2000/svg">
    <path d="M10.8888 3.30757V2.51012H11.5304C12.0213 2.51012 12.4192 2.11215 12.4192 1.62131C12.4192 1.13046 12.0213 0.732445 11.5304 0.732445H8.46951C7.97862 0.732445 7.58069 1.13042 7.58069 1.62126C7.58069 2.1121 7.97866 2.51008 8.46951 2.51008H9.11114V3.30752C4.012 3.75884 0 8.05314 0 13.2676C0 18.7816 4.48598 23.2676 10 23.2676C15.514 23.2676 20 18.7816 20 13.2676C20 8.05314 15.9879 3.75884 10.8888 3.30757ZM10.8888 21.4417V20.556C10.8888 20.0651 10.4908 19.6671 9.99996 19.6671C9.50907 19.6671 9.11114 20.0651 9.11114 20.556V21.4417C5.28589 21.0286 2.23894 17.9816 1.82587 14.1564H2.71161C3.20249 14.1564 3.60042 13.7584 3.60042 13.2676C3.60042 12.7768 3.20245 12.3788 2.71161 12.3788H1.82583C2.2389 8.55354 5.28594 5.50659 9.1111 5.09347V5.97921C9.1111 6.4701 9.50907 6.86803 9.99991 6.86803C10.4908 6.86803 10.8887 6.47005 10.8887 5.97921V5.09339C14.714 5.50646 17.7609 8.55349 18.174 12.3787H17.2883C16.7974 12.3787 16.3994 12.7767 16.3994 13.2675C16.3994 13.7584 16.7974 14.1563 17.2883 14.1563H18.1741C17.761 17.9816 14.714 21.0287 10.8888 21.4417Z"
          fill="currentColor"/>
    <path d="M12.6958 9.31472L10.1351 11.8754C10.0906 11.8712 10.0456 11.8688 9.99991 11.8688C9.22738 11.8688 8.6012 12.4951 8.6012 13.2675C8.6012 14.0401 9.22743 14.6662 9.99991 14.6662C10.7724 14.6662 11.3986 14.04 11.3986 13.2675C11.3986 13.2219 11.3963 13.1768 11.392 13.1324L13.9526 10.5717C14.2998 10.2246 14.2998 9.66181 13.9526 9.31467C13.6057 8.96758 13.0429 8.96758 12.6958 9.31472Z"
          fill="currentColor"/>
</svg>
