<svg width="24" height="24" viewBox="0 0 24 24" fill="none" xmlns="http://www.w3.org/2000/svg">
    <g clip-path="url(#clip0_181_13628)">
        <path d="M11.9998 16.4477C11.3288 16.4477 10.7664 17.0101 10.7664 17.6811C10.7664 18.3521 11.3288 18.9145 11.9998 18.9145C12.646 18.9145 13.2331 18.3521 13.2035 17.7107C13.2331 17.0052 12.6756 16.4477 11.9998 16.4477Z"
              fill="currentColor"/>
        <path d="M23.416 20.8188C24.1906 19.4818 24.1955 17.8883 23.4259 16.5562L15.6999 3.17638C14.9352 1.82951 13.5538 1.03027 12.0046 1.03027C10.4555 1.03027 9.07409 1.83445 8.30939 3.17144L0.573551 16.5661C-0.196086 17.913 -0.191152 19.5164 0.588352 20.8534C1.35799 22.1756 2.73446 22.9699 4.27373 22.9699H19.7059C21.2501 22.9699 22.6365 22.1657 23.416 20.8188ZM21.7386 19.8518C21.3094 20.5919 20.5496 21.031 19.701 21.031H4.2688C3.43009 21.031 2.67525 20.6018 2.2559 19.8765C1.83161 19.1414 1.82668 18.2632 2.25097 17.5232L9.98681 4.13349C10.4062 3.39839 11.1561 2.96423 12.0046 2.96423C12.8483 2.96423 13.6031 3.40332 14.0225 4.13842L21.7534 17.5281C22.1678 18.2484 22.1629 19.1167 21.7386 19.8518Z"
              fill="currentColor"/>
        <path d="M11.6939 7.78928C11.1068 7.95702 10.7417 8.48984 10.7417 9.13614C10.7713 9.52589 10.796 9.92058 10.8256 10.3103C10.9094 11.7953 10.9933 13.2507 11.0772 14.7357C11.1068 15.239 11.4965 15.6041 11.9998 15.6041C12.503 15.6041 12.8977 15.2143 12.9223 14.7061C12.9223 14.4003 12.9223 14.119 12.9519 13.8082C13.0062 12.8561 13.0654 11.9039 13.1197 10.9517C13.1493 10.335 13.2036 9.7183 13.2332 9.10161C13.2332 8.8796 13.2036 8.68225 13.1197 8.48491C12.8681 7.93235 12.281 7.65114 11.6939 7.78928Z"
              fill="currentColor"/>
    </g>
    <defs>
        <clipPath id="clip0_181_13628">
            <rect width="24" height="24" fill="currentColor"/>
        </clipPath>
    </defs>
</svg>

