<svg width="18" height="18" viewBox="0 0 18 18" fill="none" xmlns="http://www.w3.org/2000/svg">
    <path d="M9.00003 10.0862C3.84116 10.0862 1 12.5267 1 16.9582C1 17.3044 1.28052 17.5849 1.62663 17.5849H16.3734C16.7195 17.5849 17 17.3044 17 16.9582C17.0001 12.5269 14.1589 10.0862 9.00003 10.0862ZM2.27606 16.3316C2.52254 13.0182 4.78154 11.3394 9.00003 11.3394C13.2185 11.3394 15.4776 13.0182 15.7242 16.3316H2.27606Z"
          fill="currentColor"/>
    <path fill-rule="evenodd" clip-rule="evenodd"
          d="M2.86991 11.6328C4.29808 10.406 6.37793 9.78616 8.99998 9.78616C11.622 9.78616 13.7019 10.4061 15.1301 11.6329C16.5655 12.866 17.3 14.6753 17.3 16.9583C17.3 17.4701 16.8851 17.8849 16.3733 17.8849H1.62658C1.11478 17.8849 0.699951 17.47 0.699951 16.9583C0.699951 14.6752 1.43448 12.8658 2.86991 11.6328ZM2.27601 16.3316H15.7242C15.7166 16.2301 15.7072 16.1301 15.6958 16.0316C15.3372 12.9169 13.0892 11.3395 8.99998 11.3395C4.91076 11.3395 2.66278 12.9169 2.30434 16.0316C2.29301 16.1301 2.28357 16.2301 2.27601 16.3316ZM2.60639 16.0316H15.3938C15.2228 14.6083 14.6409 13.5528 13.6727 12.8339C12.6216 12.0534 11.0755 11.6395 8.99998 11.6395C6.92443 11.6395 5.37833 12.0534 4.32735 12.8339C3.35917 13.5528 2.77732 14.6083 2.60639 16.0316ZM0.999951 16.9583C0.999951 12.5267 3.84111 10.0862 8.99998 10.0862C14.1589 10.0862 17 12.5269 17 16.9583C17 17.3044 16.7195 17.5849 16.3733 17.5849H1.62658C1.28047 17.5849 0.999951 17.3044 0.999951 16.9583Z"
          fill="currentColor"/>
    <path d="M8.99992 0.415131C6.63019 0.415131 4.84326 2.23801 4.84326 4.65515C4.84326 7.14309 6.70792 9.16691 8.99992 9.16691C11.2919 9.16691 13.1566 7.14309 13.1566 4.65535C13.1566 2.23801 11.3696 0.415131 8.99992 0.415131ZM8.99992 7.91385C7.39887 7.91385 6.09652 6.45211 6.09652 4.65535C6.09652 2.9246 7.31762 1.66839 8.99992 1.66839C10.6553 1.66839 11.9033 2.95236 11.9033 4.65535C11.9033 6.45211 10.601 7.91385 8.99992 7.91385Z"
          fill="currentColor"/>
    <path fill-rule="evenodd" clip-rule="evenodd"
          d="M4.54321 4.65516C4.54321 2.07798 6.45886 0.115143 8.99987 0.115143C11.5409 0.115143 13.4565 2.07799 13.4565 4.65537C13.4565 7.28517 11.4802 9.46692 8.99987 9.46692C6.51952 9.46692 4.54321 7.28517 4.54321 4.65516ZM6.39647 4.65537C6.39647 6.31992 7.59612 7.61386 8.99987 7.61386C10.4036 7.61386 11.6033 6.31992 11.6033 4.65537C11.6033 3.10998 10.4816 1.9684 8.99987 1.9684C7.49122 1.9684 6.39647 3.08221 6.39647 4.65537ZM4.84321 4.65516C4.84321 2.23802 6.63014 0.415143 8.99987 0.415143C11.3696 0.415143 13.1565 2.23802 13.1565 4.65537C13.1565 7.1431 11.2919 9.16692 8.99987 9.16692C6.70787 9.16692 4.84321 7.1431 4.84321 4.65516ZM6.09647 4.65537C6.09647 6.45212 7.39882 7.91386 8.99987 7.91386C10.6009 7.91386 11.9033 6.45212 11.9033 4.65537C11.9033 2.95238 10.6552 1.6684 8.99987 1.6684C7.31757 1.6684 6.09647 2.92461 6.09647 4.65537Z"
          fill="currentColor"/>
</svg>
