<svg width="26" height="15" viewBox="0 0 26 15" fill="none" xmlns="http://www.w3.org/2000/svg">
    <path d="M23.9367 5.93807L21.9755 5.04252L20.2444 2.28083C19.7441 1.48033 18.8636 0.995035 17.918 1.00004H10.5435C9.68795 1.00004 8.87745 1.39528 8.35713 2.0757L6.12076 5.0025L2.39346 6.02313C1.44788 6.28329 0.79248 7.14882 0.79248 8.12942V9.5553C0.79248 10.761 1.75307 11.7567 2.95881 11.7567H3.27901C3.66425 13.2426 5.18018 14.1331 6.66609 13.7479C7.64169 13.4927 8.40716 12.7323 8.65732 11.7567H17.0625C17.4477 13.2426 18.9637 14.1331 20.4496 13.7479C21.4252 13.4927 22.1906 12.7323 22.4408 11.7567H23.0412C24.2469 11.7567 25.2075 10.761 25.2075 9.5553V7.9293C25.2125 7.07377 24.7122 6.29329 23.9367 5.93807ZM5.96566 12.8273C4.98506 12.8273 4.18957 12.0318 4.18957 11.0512C4.18957 10.0706 4.98506 9.27513 5.96566 9.27513C6.94626 9.27513 7.74175 10.0706 7.74175 11.0512C7.74676 12.0268 6.95127 12.8223 5.96566 12.8273ZM19.7491 12.8273C18.7685 12.8273 17.973 12.0318 17.973 11.0512C17.973 10.0706 18.7685 9.27513 19.7491 9.27513C20.7297 9.27513 21.5252 10.0706 21.5252 11.0512C21.5302 12.0268 20.7347 12.8223 19.7491 12.8273ZM23.0412 10.756H22.5108C22.3457 9.2301 20.9699 8.12942 19.4439 8.29953C18.1481 8.43961 17.1275 9.46524 16.9874 10.756H8.72736C8.56226 9.2301 7.18641 8.12942 5.66047 8.29953C4.36468 8.43961 3.34405 9.46524 3.20396 10.756H2.95381C2.29841 10.756 1.78809 10.2107 1.78809 9.5553V8.12942C1.78309 7.59409 2.13831 7.12881 2.65362 6.98372L6.55102 5.91806C6.65609 5.88804 6.75114 5.82801 6.81618 5.73795L9.14762 2.68107C9.48282 2.25081 9.99814 2.00065 10.5435 2.00065H17.918C18.5184 1.99565 19.0837 2.30084 19.3989 2.81115L21.21 5.70293C21.2601 5.78798 21.3401 5.85302 21.4252 5.89305L23.5164 6.84863C23.9367 7.04375 24.2069 7.46401 24.2019 7.9293V9.5553H24.2069C24.2069 10.2107 23.6966 10.756 23.0412 10.756Z"
          fill="currentColor"/>
    <path fill-rule="evenodd" clip-rule="evenodd"
          d="M24.1449 5.48349C25.0981 5.92011 25.7131 6.87856 25.7075 7.93086V9.5553C25.7075 11.0267 24.5334 12.2567 23.0412 12.2567H22.804C22.4246 13.2273 21.5969 13.9646 20.5761 14.2316L20.575 14.2319C18.9508 14.653 17.2956 13.7818 16.6996 12.2567H9.02053C8.64112 13.2273 7.81339 13.9646 6.7926 14.2316L6.79157 14.2319C5.16724 14.653 3.51188 13.7817 2.91604 12.2563C1.44417 12.2331 0.29248 11.0126 0.29248 9.5553V8.12942C0.29248 6.92523 1.09683 5.86129 2.26083 5.54104L5.82593 4.56482L7.95984 1.77213C8.57597 0.966407 9.53423 0.500038 10.5435 0.500038H17.9167C19.0349 0.494596 20.0762 1.06855 20.6682 2.01549C20.6682 2.01538 20.6683 2.0156 20.6682 2.01549L22.3195 4.64996L24.1449 5.48349ZM21.9755 5.04252L20.2444 2.28083C19.7441 1.48033 18.8636 0.995035 17.918 1.00004H10.5435C9.68795 1.00004 8.87745 1.39528 8.35713 2.0757L6.12076 5.0025L2.39346 6.02313C1.44788 6.28329 0.79248 7.14882 0.79248 8.12942V9.5553C0.79248 10.761 1.75307 11.7567 2.95881 11.7567H3.27901C3.66425 13.2426 5.18018 14.1331 6.66609 13.7479C7.64169 13.4927 8.40716 12.7323 8.65731 11.7567H17.0625C17.4477 13.2426 18.9636 14.1331 20.4496 13.7479C21.4252 13.4927 22.1906 12.7323 22.4408 11.7567H23.0412C24.2469 11.7567 25.2075 10.761 25.2075 9.5553V7.9293C25.2125 7.07377 24.7122 6.29329 23.9367 5.93807L21.9755 5.04252ZM1.78809 8.12942V9.5553C1.78809 10.2107 2.29841 10.756 2.95381 10.756H3.20396C3.34405 9.46524 4.36468 8.43961 5.66047 8.29953C7.18641 8.12942 8.56226 9.2301 8.72736 10.756H16.9874C17.1275 9.46524 18.1481 8.43961 19.4439 8.29953C20.9699 8.12942 22.3457 9.2301 22.5108 10.756H23.0412C23.5189 10.756 23.9196 10.4663 24.1017 10.0553C24.155 9.93495 24.1896 9.8042 24.2019 9.6673C24.2052 9.63039 24.2069 9.59302 24.2069 9.5553H24.2019V7.9293C24.2069 7.46401 23.9367 7.04375 23.5164 6.84863L21.4252 5.89305C21.3401 5.85302 21.2601 5.78798 21.21 5.70293L19.3989 2.81115C19.0837 2.30084 18.5184 1.99565 17.918 2.00065H10.5435C9.99814 2.00065 9.48282 2.25081 9.14762 2.68107L6.81618 5.73795C6.75114 5.82801 6.65608 5.88804 6.55102 5.91806L2.65362 6.98372C2.13831 7.12881 1.78309 7.59409 1.78809 8.12942ZM2.78757 7.46545C2.48635 7.55099 2.28522 7.81977 2.28807 8.12475L2.28811 8.12942L2.28809 9.5553C2.28809 9.89256 2.50668 10.1606 2.79202 10.2352C3.12761 8.93705 4.23618 7.95094 5.6059 7.80251C7.25339 7.61927 8.75329 8.69151 9.14497 10.256H16.5702C16.8993 8.94759 18.0123 7.95173 19.3894 7.80251C21.0369 7.61927 22.5368 8.69151 22.9284 10.256H23.0412C23.3744 10.256 23.661 9.99745 23.7019 9.64289V7.92392C23.7047 7.65896 23.5514 7.41665 23.307 7.30266C23.3066 7.30248 23.3063 7.30231 23.3059 7.30214L21.2122 6.34548C21.0557 6.27182 20.8933 6.1468 20.7833 5.96357L18.9735 3.0739C18.7524 2.71583 18.3519 2.49705 17.9222 2.50064L17.918 2.50067L10.5435 2.50065C10.1521 2.50065 9.78339 2.67977 9.5435 2.9865L7.21697 6.03695C7.07705 6.2274 6.88252 6.34335 6.68838 6.39882L6.6829 6.40039L2.78757 7.46545ZM7.24176 11.0538L7.24174 11.0512C7.24175 10.3468 6.67012 9.77513 5.96566 9.77513C5.2612 9.77513 4.68957 10.3468 4.68957 11.0512C4.68957 11.7553 5.26053 12.3266 5.96443 12.3273C6.67809 12.323 7.24532 11.748 7.24176 11.0538ZM5.96566 12.8273C4.98506 12.8273 4.18957 12.0318 4.18957 11.0512C4.18957 10.0706 4.98506 9.27513 5.96566 9.27513C6.94626 9.27513 7.74175 10.0706 7.74175 11.0512C7.74675 12.0268 6.95127 12.8223 5.96566 12.8273ZM21.0252 11.0538L21.0252 11.0512C21.0252 10.3468 20.4536 9.77513 19.7491 9.77513C19.0447 9.77513 18.473 10.3468 18.473 11.0512C18.473 11.7553 19.044 12.3266 19.7479 12.3273C20.4616 12.323 21.0288 11.748 21.0252 11.0538ZM17.973 11.0512C17.973 12.0318 18.7685 12.8273 19.7491 12.8273C20.7347 12.8223 21.5302 12.0268 21.5252 11.0512C21.5252 10.0706 20.7297 9.27513 19.7491 9.27513C18.7685 9.27513 17.973 10.0706 17.973 11.0512Z"
          fill="currentColor"/>
</svg>
