<svg width="24" height="24" viewBox="0 0 24 24" fill="none" xmlns="http://www.w3.org/2000/svg">
    <path d="M22.5775 10.9692L20.6807 10.1031L19.0065 7.43212C18.5227 6.65792 17.671 6.18856 16.7565 6.1934H9.62421C8.79678 6.1934 8.0129 6.57566 7.50967 7.23373L5.34675 10.0644L1.74188 11.0515C0.827358 11.3031 0.193481 12.1402 0.193481 13.0886V14.4677C0.193481 15.6338 1.12252 16.5967 2.28866 16.5967H2.59834C2.97092 18.0338 4.43707 18.8951 5.87417 18.5225C6.81773 18.2758 7.55806 17.5403 7.8 16.5967H15.9291C16.3017 18.0338 17.7678 18.8951 19.2049 18.5225C20.1485 18.2758 20.8888 17.5403 21.1308 16.5967H21.7114C22.8775 16.5967 23.8066 15.6338 23.8066 14.4677V12.8951C23.8114 12.0676 23.3275 11.3128 22.5775 10.9692ZM5.19675 17.6322C4.24835 17.6322 3.47899 16.8628 3.47899 15.9144C3.47899 14.9661 4.24835 14.1967 5.19675 14.1967C6.14514 14.1967 6.91451 14.9661 6.91451 15.9144C6.91934 16.858 6.14998 17.6274 5.19675 17.6322ZM18.5275 17.6322C17.5791 17.6322 16.8097 16.8628 16.8097 15.9144C16.8097 14.9661 17.5791 14.1967 18.5275 14.1967C19.4759 14.1967 20.2453 14.9661 20.2453 15.9144C20.2501 16.858 19.4807 17.6274 18.5275 17.6322ZM21.7114 15.629H21.1985C21.0388 14.1531 19.7082 13.0886 18.2323 13.2531C16.9791 13.3886 15.992 14.3806 15.8565 15.629H7.86774C7.70806 14.1531 6.3774 13.0886 4.90159 13.2531C3.64835 13.3886 2.66124 14.3806 2.52576 15.629H2.28382C1.64995 15.629 1.15639 15.1015 1.15639 14.4677V13.0886C1.15155 12.5709 1.49511 12.1209 1.9935 11.9805L5.76288 10.9499C5.8645 10.9209 5.95643 10.8628 6.01934 10.7757L8.27419 7.81922C8.59839 7.40308 9.09678 7.16115 9.62421 7.16115H16.7565C17.3372 7.15631 17.884 7.45147 18.1888 7.94502L19.9404 10.7418C19.9888 10.8241 20.0662 10.887 20.1485 10.9257L22.1711 11.8499C22.5775 12.0386 22.8388 12.4451 22.834 12.8951V14.4677H22.8388C22.8388 15.1015 22.3453 15.629 21.7114 15.629Z"
          fill="currentColor"/>
    <path fill-rule="evenodd" clip-rule="evenodd"
          d="M22.658 10.7935C23.4768 11.1685 24.005 11.9921 24 12.8956V14.4677C24 15.7366 22.9883 16.7902 21.7114 16.7902H21.2767C20.9811 17.7324 20.2155 18.4582 19.2538 18.7097C17.7624 19.0964 16.241 18.2433 15.7834 16.7902H7.94591C7.65033 17.7324 6.88474 18.4582 5.92307 18.7097C4.43159 19.0964 2.91027 18.2433 2.45261 16.7902H2.28861C1.01162 16.7902 0 15.7366 0 14.4677V13.0887C0 12.0538 0.6915 11.1399 1.69052 10.8651L5.23264 9.89515L7.35592 7.11636C7.89622 6.40981 8.73726 6.00004 9.62416 6.00004H16.756C17.7372 5.99503 18.651 6.49865 19.1704 7.32946M19.1704 7.32946L20.8138 9.95131L22.658 10.7935M20.6807 10.1032L19.0065 7.43219C18.5226 6.65799 17.671 6.18863 16.7565 6.19347H9.62416C8.79673 6.19347 8.01285 6.57573 7.50962 7.2338L5.3467 10.0645L1.74183 11.0516C0.827307 11.3032 0.193431 12.1403 0.193431 13.0887V14.4677C0.193431 15.6339 1.12247 16.5968 2.28861 16.5968H2.59829C2.97087 18.0339 4.43702 18.8952 5.87412 18.5226C6.81768 18.2758 7.55801 17.5403 7.79995 16.5968H15.929C16.3016 18.0339 17.7678 18.8952 19.2049 18.5226C20.1484 18.2758 20.8888 17.5403 21.1307 16.5968H21.7114C22.8775 16.5968 23.8065 15.6339 23.8065 14.4677V12.8951C23.8114 12.0677 23.3275 11.3129 22.5775 10.9693L20.6807 10.1032ZM6.72103 15.9155L6.72102 15.9145C6.72102 15.073 6.03827 14.3902 5.1967 14.3902C4.35513 14.3902 3.67237 15.073 3.67237 15.9145C3.67237 16.7559 4.35481 17.4385 5.19609 17.4388C6.04419 17.4343 6.72531 16.7503 6.72103 15.9155ZM5.1967 17.6323C4.2483 17.6323 3.47894 16.8629 3.47894 15.9145C3.47894 14.9661 4.2483 14.1968 5.1967 14.1968C6.14509 14.1968 6.91446 14.9661 6.91446 15.9145C6.91929 16.8581 6.14993 17.6274 5.1967 17.6323ZM20.0518 15.9155L20.0518 15.9145C20.0518 15.073 19.369 14.3902 18.5275 14.3902C17.6859 14.3902 17.0031 15.073 17.0031 15.9145C17.0031 16.7559 17.6856 17.4385 18.5269 17.4388C19.3749 17.4343 20.0561 16.7503 20.0518 15.9155ZM18.5275 17.6323C17.5791 17.6323 16.8097 16.8629 16.8097 15.9145C16.8097 14.9661 17.5791 14.1968 18.5275 14.1968C19.4759 14.1968 20.2452 14.9661 20.2452 15.9145C20.2501 16.8581 19.4807 17.6274 18.5275 17.6323ZM16.7565 7.16122H9.62416C9.09673 7.16122 8.59834 7.40316 8.27414 7.81929L6.01929 10.7758C5.95638 10.8629 5.86445 10.9209 5.76283 10.95L1.99345 11.9806C1.49505 12.1209 1.1515 12.5709 1.15634 13.0887V14.4677C1.15634 15.1016 1.64989 15.629 2.28377 15.629H2.52571C2.66119 14.3806 3.6483 13.3887 4.90154 13.2532C6.37735 13.0887 7.70801 14.1532 7.86769 15.629H15.8565C15.992 14.3806 16.9791 13.3887 18.2323 13.2532C19.7081 13.0887 21.0388 14.1532 21.1984 15.629H21.7114C22.2795 15.629 22.7348 15.2054 22.8232 14.6612C22.8278 14.6331 22.8314 14.6047 22.8339 14.5761C22.8371 14.5404 22.8388 14.5042 22.8388 14.4677H22.8339V12.8951C22.8388 12.4451 22.5775 12.0387 22.171 11.85L20.1484 10.9258C20.0662 10.8871 19.9888 10.8242 19.9404 10.7419L18.1887 7.9451C17.8839 7.45154 17.3371 7.15638 16.7565 7.16122ZM22.0896 12.0254C22.0894 12.0253 22.0898 12.0255 22.0896 12.0254L20.0661 11.1008C19.9562 11.0491 19.8468 10.9629 19.7752 10.8425L18.0242 8.04674C17.7557 7.61209 17.2727 7.35035 16.7581 7.35464L16.7565 7.35466L9.62416 7.35465C9.1563 7.35465 8.71465 7.56909 8.42733 7.9374C8.42713 7.93766 8.42693 7.93791 8.42673 7.93817L6.17449 10.8912C6.08258 11.0173 5.95207 11.0971 5.81597 11.1359L5.81385 11.1366L2.04587 12.1668C2.04565 12.1669 2.04609 12.1667 2.04587 12.1668C1.63033 12.2841 1.34576 12.6583 1.34977 13.0869L1.34978 13.0887L1.34977 14.4677C1.34977 15.0023 1.76411 15.4356 2.28377 15.4356H2.35741C2.57098 14.1793 3.59498 13.2 4.88042 13.0609C6.4041 12.8912 7.78373 13.9437 8.03609 15.4356H15.6882C15.9017 14.1793 16.9257 13.2 18.2112 13.0609C19.7349 12.8912 21.1145 13.9437 21.3669 15.4356H21.7114C22.1983 15.4356 22.5928 15.0551 22.6405 14.5673V12.8931C22.6445 12.5206 22.4279 12.1828 22.0896 12.0254Z"
          fill="currentColor"/>
</svg>
