<svg width="48" height="48" viewBox="0 0 48 48" fill="none" xmlns="http://www.w3.org/2000/svg">
    <path d="M24 48C37.2548 48 48 37.2548 48 24C48 10.7452 37.2548 0 24 0C10.7452 0 0 10.7452 0 24C0 37.2548 10.7452 48 24 48Z"
          fill="#3871e4"/>
    <path d="M24 28.8C23.1309 28.8 22.2955 28.4636 21.6688 27.8614C21.0421 27.2592 20.6728 26.4378 20.6382 25.5694L20.1947 14.3719C20.1769 13.9193 20.2507 13.4677 20.4116 13.0443C20.5726 12.6209 20.8173 12.2343 21.1313 11.9078C21.4452 11.5812 21.8218 11.3214 22.2386 11.144C22.6553 10.9665 23.1036 10.875 23.5566 10.875H24.4435C24.8965 10.875 25.3448 10.9665 25.7615 11.144C26.1783 11.3214 26.5549 11.5812 26.8688 11.9078C27.1828 12.2343 27.4275 12.6209 27.5884 13.0443C27.7494 13.4677 27.8232 13.9193 27.8054 14.3719L27.3619 25.5694C27.3273 26.4378 26.958 27.2592 26.3313 27.8614C25.7046 28.4636 24.8692 28.8 24 28.8Z"
          fill="currentColor"/>
    <path d="M27.359 33.7659C27.359 31.9108 25.8551 30.4069 23.9999 30.4069C22.1448 30.4069 20.6409 31.9108 20.6409 33.7659C20.6409 35.6211 22.1448 37.125 23.9999 37.125C25.8551 37.125 27.359 35.6211 27.359 33.7659Z"
          fill="currentColor"/>
</svg>
