<svg width="48" height="48" viewBox="0 0 48 48" fill="none" xmlns="http://www.w3.org/2000/svg">
    <g clip-path="url(#clip0_214_16676)">
        <path d="M24 0C10.7456 0 0 10.7456 0 24C0 37.2544 10.7456 48 24 48C37.2544 48 48 37.2544 48 24C48 10.7456 37.2544 0 24 0ZM37.6875 20.0269L23.2622 35.1759C22.8691 35.5883 22.3967 35.9172 21.8735 36.1427C21.3503 36.3682 20.7869 36.4858 20.2172 36.4884H20.1984C19.6319 36.4886 19.071 36.3749 18.5492 36.1541C18.0274 35.9333 17.5553 35.6099 17.1609 35.2031L9.50625 27.3178C9.11074 26.9208 8.79802 26.4492 8.58624 25.9304C8.37446 25.4115 8.26783 24.8558 8.27256 24.2954C8.27728 23.7351 8.39325 23.1812 8.61374 22.666C8.83423 22.1508 9.15486 21.6845 9.557 21.2943C9.95914 20.904 10.4348 20.5974 10.9564 20.3925C11.4779 20.1875 12.035 20.0881 12.5953 20.1002C13.1555 20.1122 13.7078 20.2354 14.2201 20.4626C14.7323 20.6898 15.1944 21.0165 15.5794 21.4237L20.1684 26.1506L31.5581 14.19C31.9414 13.7875 32.4002 13.4645 32.9082 13.2393C33.4163 13.0142 33.9638 12.8913 34.5194 12.8777C35.075 12.8641 35.6278 12.9601 36.1463 13.1602C36.6648 13.3603 37.1388 13.6605 37.5413 14.0438C37.9437 14.427 38.2667 14.8858 38.4919 15.3939C38.7171 15.902 38.8399 16.4494 38.8535 17.005C38.8671 17.5606 38.7711 18.1134 38.5711 18.6319C38.371 19.1504 38.0708 19.6244 37.6875 20.0269Z"
              fill="#00AC47"/>
    </g>
    <defs>
        <clipPath id="clip0_214_16676">
            <rect width="48" height="48" fill="currentColor"/>
        </clipPath>
    </defs>
</svg>
