<svg width="218" height="47" viewBox="0 0 218 47" fill="none" xmlns="http://www.w3.org/2000/svg">
    <path d="M151.872 10.8399C151.872 10.2284 151.376 9.73267 150.764 9.73267C150.152 9.73267 149.656 10.2284 149.656 10.8399V35.8743C149.656 36.4858 150.152 36.9816 150.764 36.9816C151.376 36.9816 151.872 36.4858 151.872 35.8743V10.8399Z"
          fill="#1D1D1B"/>
    <path d="M121.814 28.0885C121.814 28.7001 122.31 29.1958 122.922 29.1958C123.534 29.1958 124.03 28.7001 124.03 28.0885V18.6256C124.03 18.0141 123.534 17.5183 122.922 17.5183C122.31 17.5183 121.814 18.0141 121.814 18.6256V28.0885Z"
          fill="#1D1D1B"/>
    <path d="M130.989 18.6258C130.989 18.0143 130.493 17.5186 129.881 17.5186C129.269 17.5186 128.773 18.0143 128.773 18.6258V28.0888C128.773 28.7003 129.269 29.196 129.881 29.196C130.493 29.196 130.989 28.7003 130.989 28.0888V18.6258Z"
          fill="#1D1D1B"/>
    <path d="M204.078 16.6788C204.078 16.0673 203.582 15.5715 202.97 15.5715C202.358 15.5715 201.862 16.0673 201.862 16.6788V30.0357C201.862 30.6472 202.358 31.143 202.97 31.143C203.582 31.143 204.078 30.6472 204.078 30.0357V16.6788Z"
          fill="#1D1D1B"/>
    <path d="M158.833 16.6788C158.833 16.0673 158.337 15.5715 157.725 15.5715C157.113 15.5715 156.617 16.0673 156.617 16.6788V30.0357C156.617 30.6472 157.113 31.143 157.725 31.143C158.337 31.143 158.833 30.6472 158.833 30.0357V16.6788Z"
          fill="#1D1D1B"/>
    <path d="M162.314 14.7318C162.314 14.1203 161.817 13.6245 161.206 13.6245C160.594 13.6245 160.098 14.1203 160.098 14.7318V31.9804C160.098 32.592 160.594 33.0877 161.206 33.0877C161.817 33.0877 162.314 32.592 162.314 31.9804V14.7318Z"
          fill="#1D1D1B"/>
    <path d="M89.2247 12.7848C89.2247 12.1732 88.7286 11.6775 88.1167 11.6775C87.5048 11.6775 87.0088 12.1732 87.0088 12.7848V33.9274C87.0088 34.5389 87.5048 35.0346 88.1167 35.0346C88.7286 35.0346 89.2247 34.5389 89.2247 33.9274V12.7848Z"
          fill="#1D1D1B"/>
    <path d="M114.853 35.8742C114.853 36.4857 115.349 36.9814 115.961 36.9814C116.573 36.9814 117.069 36.4857 117.069 35.8742V10.8398C117.069 10.2283 116.573 9.73253 115.961 9.73253C115.349 9.73253 114.853 10.2283 114.853 10.8398V35.8742Z"
          fill="#1D1D1B"/>
    <path d="M118.334 33.9293C118.334 34.5409 118.83 35.0366 119.442 35.0366C120.053 35.0366 120.549 34.5409 120.549 33.9293V12.7867C120.549 12.1752 120.053 11.6795 119.442 11.6795C118.83 11.6795 118.334 12.1752 118.334 12.7867V33.9293Z"
          fill="#1D1D1B"/>
    <path d="M75.3025 4.99912C75.3025 4.38759 74.8065 3.89185 74.1946 3.89185C73.5827 3.89185 73.0867 4.38759 73.0867 4.99912V41.7132C73.0867 42.3247 73.5827 42.8204 74.1946 42.8204C74.8065 42.8204 75.3025 42.3247 75.3025 41.7132V4.99912Z"
          fill="#1D1D1B"/>
    <path d="M111.37 43.6601C111.37 44.2716 111.866 44.7673 112.478 44.7673C113.09 44.7673 113.586 44.2716 113.586 43.6601V3.05426C113.586 2.44273 113.09 1.94699 112.478 1.94699C111.866 1.94699 111.37 2.44273 111.37 3.05426V43.6601Z"
          fill="#1D1D1B"/>
    <path d="M174.018 45.6071C174.018 46.2186 174.514 46.7144 175.126 46.7144C175.738 46.7144 176.234 46.2186 176.234 45.6071V1.10733C176.234 0.495804 175.738 5.72205e-05 175.126 5.72205e-05C174.514 5.72205e-05 174.018 0.495804 174.018 1.10733V45.6071Z"
          fill="#1D1D1B"/>
    <path d="M78.7833 8.89292C78.7833 8.28139 78.2872 7.78564 77.6753 7.78564C77.0634 7.78564 76.5674 8.28139 76.5674 8.89292V37.8212C76.5674 38.4328 77.0634 38.9285 77.6753 38.9285C78.2872 38.9285 78.7833 38.4328 78.7833 37.8212V8.89292Z"
          fill="#1D1D1B"/>
    <path d="M190.156 10.8399C190.156 10.2284 189.66 9.73267 189.048 9.73267C188.436 9.73267 187.94 10.2284 187.94 10.8399V35.8743C187.94 36.4858 188.436 36.9816 189.048 36.9816C189.66 36.9816 190.156 36.4858 190.156 35.8743V10.8399Z"
          fill="#1D1D1B"/>
    <path d="M200.597 18.6258C200.597 18.0143 200.101 17.5186 199.489 17.5186C198.878 17.5186 198.381 18.0143 198.381 18.6258V28.0888C198.381 28.7003 198.878 29.196 199.489 29.196C200.101 29.196 200.597 28.7003 200.597 28.0888V18.6258Z"
          fill="#1D1D1B"/>
    <path d="M99.6663 20.5707C99.6663 19.9591 99.1703 19.4634 98.5584 19.4634C97.9465 19.4634 97.4504 19.9591 97.4504 20.5707V26.1418C97.4504 26.7534 97.9465 27.2491 98.5584 27.2491C99.1703 27.2491 99.6663 26.7534 99.6663 26.1418V20.5707Z"
          fill="#1D1D1B"/>
    <path d="M211.039 16.6788C211.039 16.0673 210.543 15.5715 209.931 15.5715C209.319 15.5715 208.823 16.0673 208.823 16.6788V30.0357C208.823 30.6472 209.319 31.143 209.931 31.143C210.543 31.143 211.039 30.6472 211.039 30.0357V16.6788Z"
          fill="#1D1D1B"/>
    <path d="M207.558 14.7318C207.558 14.1203 207.062 13.6245 206.45 13.6245C205.839 13.6245 205.343 14.1203 205.343 14.7318V31.9804C205.343 32.592 205.839 33.0877 206.45 33.0877C207.062 33.0877 207.558 32.592 207.558 31.9804V14.7318Z"
          fill="#1D1D1B"/>
    <path d="M193.636 12.7848C193.636 12.1732 193.14 11.6775 192.528 11.6775C191.916 11.6775 191.42 12.1732 191.42 12.7848V33.9274C191.42 34.5389 191.916 35.0346 192.528 35.0346C193.14 35.0346 193.636 34.5389 193.636 33.9274V12.7848Z"
          fill="#1D1D1B"/>
    <path d="M179.714 4.99912C179.714 4.38759 179.218 3.89185 178.606 3.89185C177.994 3.89185 177.498 4.38759 177.498 4.99912V41.7132C177.498 42.3247 177.994 42.8204 178.606 42.8204C179.218 42.8204 179.714 42.3247 179.714 41.7132V4.99912Z"
          fill="#1D1D1B"/>
    <path d="M82.2637 3.05429C82.2637 2.44276 81.7677 1.94702 81.1558 1.94702C80.5439 1.94702 80.0479 2.44276 80.0479 3.05429V43.6601C80.0479 44.2716 80.5439 44.7674 81.1558 44.7674C81.7677 44.7674 82.2637 44.2716 82.2637 43.6601V3.05429Z"
          fill="#1D1D1B"/>
    <path d="M186.675 8.89292C186.675 8.28139 186.179 7.78564 185.567 7.78564C184.955 7.78564 184.459 8.28139 184.459 8.89292V37.8212C184.459 38.4328 184.955 38.9285 185.567 38.9285C186.179 38.9285 186.675 38.4328 186.675 37.8212V8.89292Z"
          fill="#1D1D1B"/>
    <path d="M144.911 6.9459C144.911 6.33437 144.415 5.83862 143.803 5.83862C143.191 5.83862 142.695 6.33437 142.695 6.9459V39.766C142.695 40.3775 143.191 40.8733 143.803 40.8733C144.415 40.8733 144.911 40.3775 144.911 39.766V6.9459Z"
          fill="#1D1D1B"/>
    <path d="M139.215 35.8742C139.215 36.4857 139.711 36.9814 140.323 36.9814C140.935 36.9814 141.431 36.4857 141.431 35.8742V10.8398C141.431 10.2283 140.935 9.73253 140.323 9.73253C139.711 9.73253 139.215 10.2283 139.215 10.8398V35.8742Z"
          fill="#1D1D1B"/>
    <path d="M132.256 30.0356C132.256 30.6471 132.752 31.1428 133.364 31.1428C133.976 31.1428 134.472 30.6471 134.472 30.0356V16.6787C134.472 16.0671 133.976 15.5714 133.364 15.5714C132.752 15.5714 132.256 16.0671 132.256 16.6787V30.0356Z"
          fill="#1D1D1B"/>
    <path d="M135.734 31.9826C135.734 32.5941 136.23 33.0898 136.842 33.0898C137.454 33.0898 137.95 32.5941 137.95 31.9826V14.7339C137.95 14.1224 137.454 13.6266 136.842 13.6266C136.23 13.6266 135.734 14.1224 135.734 14.7339V31.9826Z"
          fill="#1D1D1B"/>
    <path d="M163.578 33.9293C163.578 34.5409 164.074 35.0366 164.686 35.0366C165.298 35.0366 165.794 34.5409 165.794 33.9293V12.7867C165.794 12.1752 165.298 11.6795 164.686 11.6795C164.074 11.6795 163.578 12.1752 163.578 12.7867V33.9293Z"
          fill="#1D1D1B"/>
    <path d="M146.176 37.8212C146.176 38.4327 146.672 38.9285 147.284 38.9285C147.895 38.9285 148.391 38.4327 148.391 37.8212V8.89287C148.391 8.28135 147.895 7.7856 147.284 7.7856C146.672 7.7856 146.176 8.28135 146.176 8.89287V37.8212Z"
          fill="#1D1D1B"/>
    <path d="M167.059 39.7685C167.059 40.38 167.555 40.8757 168.167 40.8757C168.779 40.8757 169.275 40.38 169.275 39.7685V6.94837C169.275 6.33684 168.779 5.8411 168.167 5.8411C167.555 5.8411 167.059 6.33684 167.059 6.94837V39.7685Z"
          fill="#1D1D1B"/>
    <path d="M17.4027 35.8742C17.4027 36.4857 17.8987 36.9814 18.5106 36.9814C19.1225 36.9814 19.6185 36.4857 19.6185 35.8742L19.6185 10.8398C19.6185 10.2283 19.1225 9.73253 18.5106 9.73253C17.8987 9.73253 17.4027 10.2283 17.4027 10.8398L17.4027 35.8742Z"
          fill="#1D1D1B"/>
    <path d="M10.4415 28.0885C10.4415 28.7001 10.9375 29.1958 11.5494 29.1958C12.1613 29.1958 12.6573 28.7001 12.6573 28.0885L12.6573 18.6256C12.6573 18.0141 12.1613 17.5183 11.5494 17.5183C10.9375 17.5183 10.4415 18.0141 10.4415 18.6256L10.4415 28.0885Z"
          fill="#1D1D1B"/>
    <path d="M6.96101 26.1437C6.96101 26.7552 7.45705 27.251 8.06894 27.251C8.68084 27.251 9.17688 26.7552 9.17688 26.1437V20.5725C9.17688 19.961 8.68084 19.4653 8.06894 19.4653C7.45705 19.4653 6.96101 19.961 6.96101 20.5725L6.96101 26.1437Z"
          fill="#1D1D1B"/>
    <path d="M96.1858 18.6258C96.1858 18.0143 95.6898 17.5186 95.0779 17.5186C94.466 17.5186 93.97 18.0143 93.97 18.6258V28.0888C93.97 28.7003 94.466 29.196 95.0779 29.196C95.6898 29.196 96.1858 28.7003 96.1858 28.0888V18.6258Z"
          fill="#1D1D1B"/>
    <path d="M-5.22137e-05 26.1437C-5.22137e-05 26.7552 0.495988 27.251 1.10788 27.251C1.71978 27.251 2.21582 26.7552 2.21582 26.1437L2.21582 20.5725C2.21582 19.961 1.71978 19.4653 1.10788 19.4653C0.495988 19.4653 -5.22137e-05 19.961 -5.22137e-05 20.5725L-5.22137e-05 26.1437Z"
          fill="#1D1D1B"/>
    <path d="M3.48054 24.1969C3.48054 24.8085 3.97658 25.3042 4.58847 25.3042C5.20037 25.3042 5.69641 24.8085 5.69641 24.1969V22.5197C5.69641 21.9082 5.20037 21.4124 4.58847 21.4124C3.97658 21.4124 3.48054 21.9082 3.48054 22.5197L3.48054 24.1969Z"
          fill="#1D1D1B"/>
    <path d="M194.901 30.0356C194.901 30.6471 195.397 31.1428 196.009 31.1428C196.621 31.1428 197.117 30.6471 197.117 30.0356V16.6787C197.117 16.0671 196.621 15.5714 196.009 15.5714C195.397 15.5714 194.901 16.0671 194.901 16.6787V30.0356Z"
          fill="#1D1D1B"/>
    <path d="M48.7252 28.0885C48.7252 28.7001 49.2212 29.1958 49.8331 29.1958C50.445 29.1958 50.941 28.7001 50.941 28.0885V18.6256C50.941 18.0141 50.445 17.5183 49.8331 17.5183C49.2212 17.5183 48.7252 18.0141 48.7252 18.6256V28.0885Z"
          fill="#1D1D1B"/>
    <path d="M41.7642 35.8742C41.7642 36.4857 42.2603 36.9814 42.8722 36.9814C43.4841 36.9814 43.9801 36.4857 43.9801 35.8742V10.8398C43.9801 10.2283 43.4841 9.73253 42.8722 9.73253C42.2603 9.73253 41.7642 10.2283 41.7642 10.8398V35.8742Z"
          fill="#1D1D1B"/>
    <path d="M45.2447 33.9293C45.2447 34.5409 45.7407 35.0366 46.3526 35.0366C46.9645 35.0366 47.4606 34.5409 47.4606 33.9293V12.7867C47.4606 12.1752 46.9645 11.6795 46.3526 11.6795C45.7407 11.6795 45.2447 12.1752 45.2447 12.7867V33.9293Z"
          fill="#1D1D1B"/>
    <path d="M62.6451 28.0885C62.6451 28.7001 63.1411 29.1958 63.753 29.1958C64.3649 29.1958 64.861 28.7001 64.861 28.0885V18.6256C64.861 18.0141 64.3649 17.5183 63.753 17.5183C63.1411 17.5183 62.6451 18.0141 62.6451 18.6256V28.0885Z"
          fill="#1D1D1B"/>
    <path d="M59.1646 26.1437C59.1646 26.7552 59.6607 27.251 60.2726 27.251C60.8845 27.251 61.3805 26.7552 61.3805 26.1437V20.5725C61.3805 19.961 60.8845 19.4653 60.2726 19.4653C59.6607 19.4653 59.1646 19.961 59.1646 20.5725V26.1437Z"
          fill="#1D1D1B"/>
    <path d="M52.2056 26.1437C52.2056 26.7552 52.7017 27.251 53.3136 27.251C53.9255 27.251 54.4215 26.7552 54.4215 26.1437V20.5725C54.4215 19.961 53.9255 19.4653 53.3136 19.4653C52.7017 19.4653 52.2056 19.961 52.2056 20.5725V26.1437Z"
          fill="#1D1D1B"/>
    <path d="M55.6863 24.1969C55.6863 24.8085 56.1824 25.3042 56.7943 25.3042C57.4062 25.3042 57.9022 24.8085 57.9022 24.1969V22.5197C57.9022 21.9082 57.4062 21.4124 56.7943 21.4124C56.1824 21.4124 55.6863 21.9082 55.6863 22.5197V24.1969Z"
          fill="#1D1D1B"/>
    <path d="M90.4893 30.0356C90.4893 30.6471 90.9854 31.1428 91.5973 31.1428C92.2092 31.1428 92.7052 30.6471 92.7052 30.0356V16.6787C92.7052 16.0671 92.2092 15.5714 91.5973 15.5714C90.9854 15.5714 90.4893 16.0671 90.4893 16.6787V30.0356Z"
          fill="#1D1D1B"/>
    <path d="M153.137 31.9826C153.137 32.5941 153.633 33.0898 154.245 33.0898C154.857 33.0898 155.353 32.5941 155.353 31.9826V14.7339C155.353 14.1224 154.857 13.6266 154.245 13.6266C153.633 13.6266 153.137 14.1224 153.137 14.7339V31.9826Z"
          fill="#1D1D1B"/>
    <path d="M13.9222 33.9293C13.9222 34.5409 14.4182 35.0366 15.0301 35.0366C15.642 35.0366 16.1381 34.5409 16.1381 33.9293L16.1381 12.7867C16.1381 12.1752 15.642 11.6795 15.0301 11.6795C14.4182 11.6795 13.9222 12.1752 13.9222 12.7867L13.9222 33.9293Z"
          fill="#1D1D1B"/>
    <path d="M83.5306 41.7152C83.5306 42.3268 84.0266 42.8225 84.6385 42.8225C85.2504 42.8225 85.7465 42.3268 85.7465 41.7152V5.00121C85.7465 4.38968 85.2504 3.89393 84.6385 3.89393C84.0266 3.89393 83.5306 4.38968 83.5306 5.00121V41.7152Z"
          fill="#1D1D1B"/>
    <path d="M31.3248 45.6071C31.3248 46.2186 31.8208 46.7144 32.4327 46.7144C33.0446 46.7144 33.5406 46.2186 33.5406 45.6071L33.5406 1.10733C33.5406 0.495804 33.0446 5.72205e-05 32.4327 5.72205e-05C31.8208 5.72205e-05 31.3248 0.495804 31.3248 1.10733L31.3248 45.6071Z"
          fill="#1D1D1B"/>
    <path d="M27.8443 43.6601C27.8443 44.2716 28.3403 44.7673 28.9522 44.7673C29.5641 44.7673 30.0602 44.2716 30.0602 43.6601L30.0602 3.05426C30.0602 2.44273 29.5641 1.94699 28.9522 1.94699C28.3403 1.94699 27.8443 2.44273 27.8443 3.05426L27.8443 43.6601Z"
          fill="#1D1D1B"/>
    <path d="M20.8809 37.8212C20.8809 38.4327 21.377 38.9285 21.9889 38.9285C22.6008 38.9285 23.0968 38.4327 23.0968 37.8212L23.0968 8.89287C23.0968 8.28135 22.6008 7.7856 21.9889 7.7856C21.377 7.7856 20.8809 8.28135 20.8809 8.89287L20.8809 37.8212Z"
          fill="#1D1D1B"/>
    <path d="M24.3614 39.7685C24.3614 40.38 24.8574 40.8757 25.4693 40.8757C26.0812 40.8757 26.5773 40.38 26.5773 39.7685L26.5773 6.94837C26.5773 6.33684 26.0812 5.8411 25.4693 5.8411C24.8574 5.8411 24.3614 6.33684 24.3614 6.94837L24.3614 39.7685Z"
          fill="#1D1D1B"/>
    <path d="M34.8052 43.6601C34.8052 44.2716 35.3013 44.7673 35.9132 44.7673C36.5251 44.7673 37.0211 44.2716 37.0211 43.6601L37.0211 3.05426C37.0211 2.44273 36.5251 1.94699 35.9132 1.94699C35.3013 1.94699 34.8052 2.44273 34.8052 3.05426L34.8052 43.6601Z"
          fill="#1D1D1B"/>
    <path d="M38.2835 41.7152C38.2835 42.3268 38.7796 42.8225 39.3915 42.8225C40.0034 42.8225 40.4994 42.3268 40.4994 41.7152L40.4994 5.00121C40.4994 4.38968 40.0034 3.89393 39.3915 3.89393C38.7796 3.89393 38.2835 4.38968 38.2835 5.00121L38.2835 41.7152Z"
          fill="#1D1D1B"/>
    <path d="M107.89 35.8742C107.89 36.4857 108.386 36.9814 108.998 36.9814C109.61 36.9814 110.106 36.4857 110.106 35.8742V10.8398C110.106 10.2283 109.61 9.73253 108.998 9.73253C108.386 9.73253 107.89 10.2283 107.89 10.8398V35.8742Z"
          fill="#1D1D1B"/>
    <path d="M100.931 30.0356C100.931 30.6471 101.427 31.1428 102.039 31.1428C102.651 31.1428 103.147 30.6471 103.147 30.0356V16.6787C103.147 16.0671 102.651 15.5714 102.039 15.5714C101.427 15.5714 100.931 16.0671 100.931 16.6787V30.0356Z"
          fill="#1D1D1B"/>
    <path d="M104.411 31.9826C104.411 32.5941 104.907 33.0898 105.519 33.0898C106.131 33.0898 106.627 32.5941 106.627 31.9826V14.7339C106.627 14.1224 106.131 13.6266 105.519 13.6266C104.907 13.6266 104.411 14.1224 104.411 14.7339V31.9826Z"
          fill="#1D1D1B"/>
    <path d="M180.979 35.8742C180.979 36.4857 181.475 36.9814 182.087 36.9814C182.699 36.9814 183.195 36.4857 183.195 35.8742V10.8398C183.195 10.2283 182.699 9.73253 182.087 9.73253C181.475 9.73253 180.979 10.2283 180.979 10.8398V35.8742Z"
          fill="#1D1D1B"/>
    <path d="M66.1278 31.9826C66.1278 32.5941 66.6238 33.0898 67.2357 33.0898C67.8476 33.0898 68.3436 32.5941 68.3436 31.9826V14.7339C68.3436 14.1224 67.8476 13.6266 67.2357 13.6266C66.6238 13.6266 66.1278 14.1224 66.1278 14.7339V31.9826Z"
          fill="#1D1D1B"/>
    <path d="M170.539 41.7152C170.539 42.3268 171.036 42.8225 171.647 42.8225C172.259 42.8225 172.755 42.3268 172.755 41.7152V5.00121C172.755 4.38968 172.259 3.89393 171.647 3.89393C171.036 3.89393 170.539 4.38968 170.539 5.00121V41.7152Z"
          fill="#1D1D1B"/>
    <path d="M69.6085 37.8212C69.6085 38.4327 70.1045 38.9285 70.7164 38.9285C71.3283 38.9285 71.8243 38.4327 71.8243 37.8212V8.89287C71.8243 8.28135 71.3283 7.7856 70.7164 7.7856C70.1045 7.7856 69.6085 8.28135 69.6085 8.89287V37.8212Z"
          fill="#1D1D1B"/>
    <path d="M125.295 26.1437C125.295 26.7552 125.791 27.251 126.403 27.251C127.015 27.251 127.511 26.7552 127.511 26.1437V20.5725C127.511 19.961 127.015 19.4653 126.403 19.4653C125.791 19.4653 125.295 19.961 125.295 20.5725V26.1437Z"
          fill="#1D1D1B"/>
    <path d="M212.301 26.1437C212.301 26.7552 212.797 27.251 213.409 27.251C214.021 27.251 214.517 26.7552 214.517 26.1437V20.5725C214.517 19.961 214.021 19.4653 213.409 19.4653C212.797 19.4653 212.301 19.961 212.301 20.5725V26.1437Z"
          fill="#1D1D1B"/>
    <path d="M215.784 24.1969C215.784 24.8085 216.28 25.3042 216.892 25.3042C217.504 25.3042 218 24.8085 218 24.1969V22.5197C218 21.9082 217.504 21.4124 216.892 21.4124C216.28 21.4124 215.784 21.9082 215.784 22.5197V24.1969Z"
          fill="#1D1D1B"/>
</svg>
